<svg width="18" height="20" viewBox="0 0 18 20" fill="none" xmlns="http://www.w3.org/2000/svg">
<path d="M15.9844 1.98462C16.5469 1.98462 17.0156 2.18774 17.3906 2.59399C17.7969 2.96899 18 3.43774 18 4.00024V18.0159C18 18.5471 17.7969 19.0159 17.3906 19.4221C17.0156 19.7971 16.5469 19.9846 15.9844 19.9846H2.01562C1.45312 19.9846 0.96875 19.7971 0.5625 19.4221C0.1875 19.0159 0 18.5471 0 18.0159V4.00024C0 3.43774 0.1875 2.96899 0.5625 2.59399C0.96875 2.18774 1.45312 1.98462 2.01562 1.98462H3V0.0158691H5.01562V1.98462H12.9844V0.0158691H15V1.98462H15.9844ZM15.9844 18.0159V7.98462H2.01562V18.0159H15.9844ZM6 12.0159V10.0002H3.98438V12.0159H6ZM9.98438 12.0159V10.0002H8.01562V12.0159H9.98438ZM14.0156 12.0159V10.0002H12V12.0159H14.0156ZM6 16.0002V13.9846H3.98438V16.0002H6ZM9.98438 16.0002V13.9846H8.01562V16.0002H9.98438ZM14.0156 16.0002V13.9846H12V16.0002H14.0156Z" fill="black" fill-opacity="0.8"/>
</svg>
