<svg width="56" height="56" viewBox="0 0 56 56" fill="none" xmlns="http://www.w3.org/2000/svg">
<circle cx="28" cy="28.0002" r="28" fill="#F5F5F5"/>
<path d="M34.9844 19.9846C35.5469 19.9846 36.0156 20.1877 36.3906 20.594C36.7969 20.969 37 21.4377 37 22.0002V36.0159C37 36.5471 36.7969 37.0159 36.3906 37.4221C36.0156 37.7971 35.5469 37.9846 34.9844 37.9846H21.0156C20.4531 37.9846 19.9688 37.7971 19.5625 37.4221C19.1875 37.0159 19 36.5471 19 36.0159V22.0002C19 21.4377 19.1875 20.969 19.5625 20.594C19.9688 20.1877 20.4531 19.9846 21.0156 19.9846H22V18.0159H24.0156V19.9846H31.9844V18.0159H34V19.9846H34.9844ZM34.9844 36.0159V25.9846H21.0156V36.0159H34.9844ZM25 30.0159V28.0002H22.9844V30.0159H25ZM28.9844 30.0159V28.0002H27.0156V30.0159H28.9844ZM33.0156 30.0159V28.0002H31V30.0159H33.0156ZM25 34.0002V31.9846H22.9844V34.0002H25ZM28.9844 34.0002V31.9846H27.0156V34.0002H28.9844ZM33.0156 34.0002V31.9846H31V34.0002H33.0156Z" fill="black" fill-opacity="0.8"/>
</svg>
