<svg width="1440" height="1688" viewBox="0 0 1440 1688" fill="none" xmlns="http://www.w3.org/2000/svg">
<g filter="url(#filter0_d_24_5)">
<path d="M-2124.39 161.973C-1990.7 229.534 -1872.67 317.784 -1775.98 422.483C-1548.28 671.325 -1582.09 870.876 -1450.1 900.681C-1246.14 946.719 -1108.59 482.845 -677.717 405.33C-361.691 348.441 -42.9242 527.399 30.8576 568.863C318.703 730.43 354.967 912.347 562.694 915.055C714.646 917.177 760.674 820.775 998.845 777.691C1164.65 747.702 1309.27 764.182 1406.66 783.145" stroke="#EACFFB" stroke-opacity="0.3" stroke-width="5" stroke-miterlimit="10"/>
<path d="M-2124.51 183.758C-1990.82 251.341 -1872.77 339.604 -1776.04 444.311C-1548.34 693.198 -1582.15 892.703 -1450.22 922.512C-1246.21 968.546 -1108.66 504.673 -677.837 427.162C-361.755 370.315 -42.9874 549.273 30.7907 590.69C318.636 752.257 354.847 934.178 562.627 936.882C714.579 939.004 760.554 842.606 998.778 799.518C1164.64 769.525 1309.21 786.009 1406.59 804.972" stroke="#EACFFB" stroke-opacity="0.3" stroke-width="5" stroke-miterlimit="10"/>
<path d="M-2124.64 205.542C-1990.93 273.111 -1872.88 361.376 -1776.17 466.096C-1548.47 714.983 -1582.28 914.488 -1450.29 944.293C-1246.49 990.344 -1108.73 526.453 -677.908 448.942C-361.879 392.1 -43.1114 571.058 30.6667 612.475C318.516 774.089 354.776 955.959 562.503 958.667C714.455 960.789 760.479 864.341 998.65 821.257C1164.51 791.263 1309.08 807.747 1406.46 826.711" stroke="#EACFFB" stroke-opacity="0.3" stroke-width="5" stroke-miterlimit="10"/>
<path d="M-2124.66 227.319C-1990.97 294.922 -1872.94 383.203 -1776.24 487.923C-1548.54 736.811 -1582.35 936.316 -1450.41 966.125C-1246.4 1012.16 -1108.85 548.285 -678.031 470.774C-361.948 413.927 -43.1812 592.885 30.597 634.303C318.446 795.916 354.653 977.791 562.433 980.495C714.386 982.616 760.356 886.172 998.581 843.084C1164.44 813.091 1309.01 829.575 1406.39 848.538" stroke="#EACFFB" stroke-opacity="0.3" stroke-width="5" stroke-miterlimit="10"/>
<path d="M-2124.83 249.108C-1991.14 316.692 -1873.09 404.955 -1776.37 509.661C-1548.61 758.545 -1582.47 958.1 -1450.49 987.858C-1246.53 1033.9 -1108.93 570.019 -678.106 492.508C-362.024 435.661 -43.3102 614.623 30.5215 656.037C318.317 817.654 354.578 999.524 562.304 1002.23C714.257 1004.35 760.28 907.906 998.451 864.822C1164.31 834.829 1308.88 851.359 1406.26 870.276" stroke="#EACFFB" stroke-opacity="0.3" stroke-width="5" stroke-miterlimit="10"/>
<path d="M-2124.9 270.889C-1991.22 338.486 -1873.18 426.747 -1776.43 531.442C-1548.73 780.329 -1582.54 979.881 -1450.61 1009.64C-1246.76 1055.69 -1109.05 591.804 -678.19 514.103C-362.161 457.26 -43.394 636.218 30.3841 677.636C318.233 839.249 354.44 1021.12 562.22 1023.83C714.173 1025.95 760.143 929.505 998.368 886.417C1164.23 856.424 1308.8 872.954 1406.23 891.867" stroke="#EACFFB" stroke-opacity="0.3" stroke-width="5" stroke-miterlimit="10"/>
<path d="M-2124.92 292.711C-1991.24 360.318 -1873.23 448.618 -1776.55 553.366C-1548.8 802.249 -1582.66 1001.8 -1450.67 1031.56C-1246.71 1077.65 -1109.11 613.77 -678.291 536.259C-362.212 479.366 -43.4979 658.328 30.3338 699.741C318.129 861.359 354.39 1043.23 562.117 1045.94C714.069 1048.06 760.093 951.611 998.264 908.527C1164.13 878.58 1308.7 895.064 1406.07 913.981" stroke="#EACFFB" stroke-opacity="0.3" stroke-width="5" stroke-miterlimit="10"/>
<path d="M-2125.11 314.31C-1991.4 381.878 -1873.36 470.144 -1776.64 574.863C-1548.95 823.704 -1582.75 1023.26 -1450.82 1053.06C-1246.81 1099.1 -1109.26 635.225 -678.386 557.709C-362.36 500.82 -43.5931 679.778 30.1887 721.242C318.034 882.809 354.241 1064.68 562.025 1067.43C713.977 1069.56 760.001 973.108 998.176 930.07C1163.98 900.081 1308.55 916.565 1405.99 935.524" stroke="#EACFFB" stroke-opacity="0.3" stroke-width="5" stroke-miterlimit="10"/>
<path d="M-2125.23 336.276C-1991.51 403.855 -1873.45 492.117 -1776.7 596.825C-1549.01 845.667 -1582.87 1045.22 -1450.88 1075.03C-1247.03 1121.07 -1109.32 657.187 -678.509 579.537C-362.43 522.644 -43.7166 701.606 30.1187 743.066C317.911 904.637 354.175 1086.55 561.902 1089.26C713.854 1091.38 759.881 994.982 998.052 951.898C1163.91 921.904 1308.48 938.388 1405.86 957.352" stroke="#EACFFB" stroke-opacity="0.3" stroke-width="5" stroke-miterlimit="10"/>
<path d="M-2125.19 358.049C-1991.51 425.698 -1873.49 514.027 -1776.81 618.796C-1549.11 867.684 -1582.92 1067.19 -1450.93 1096.99C-1246.98 1143.03 -1109.43 679.158 -678.556 601.643C-362.53 544.754 -43.7627 723.712 30.0191 765.176C317.864 926.743 354.075 1108.66 561.855 1111.37C713.808 1113.49 759.835 1017.09 998.006 974.004C1163.81 944.014 1308.38 960.498 1405.82 979.458" stroke="#EACFFB" stroke-opacity="0.3" stroke-width="5" stroke-miterlimit="10"/>
<path d="M-2125.37 379.747C-1991.69 447.344 -1873.65 535.606 -1776.91 640.3C-1549.21 889.188 -1583.02 1088.69 -1451.08 1118.5C-1247.12 1164.54 -1109.52 700.662 -678.7 623.151C-362.617 566.305 -43.9037 745.267 29.9279 786.68C317.72 948.251 353.984 1130.17 561.764 1132.87C713.663 1135 759.69 1038.6 997.915 995.508C1163.78 965.515 1308.34 981.999 1405.73 1000.96" stroke="#EACFFB" stroke-opacity="0.3" stroke-width="5" stroke-miterlimit="10"/>
<path d="M-2125.5 401.623C-1991.8 469.207 -1873.75 557.47 -1777.03 662.176C-1549.33 911.064 -1583.14 1110.57 -1451.15 1140.37C-1247.19 1186.41 -1109.64 722.538 -678.769 645.023C-362.74 588.181 -43.9725 767.139 29.8056 808.556C317.655 970.169 353.862 1152.04 561.642 1154.75C713.594 1156.87 759.618 1060.42 997.789 1017.34C1163.6 987.348 1308.17 1003.83 1405.6 1022.79" stroke="#EACFFB" stroke-opacity="0.3" stroke-width="5" stroke-miterlimit="10"/>
<path d="M-2125.46 423.396C-1991.78 491.006 -1873.74 579.265 -1776.99 683.949C-1549.29 932.836 -1583.1 1132.34 -1451.16 1162.15C-1247.32 1208.15 -1109.62 744.125 -678.891 666.808C-362.809 609.961 -44.095 788.923 29.7367 830.337C317.532 991.954 353.793 1173.82 561.573 1176.53C713.472 1178.65 759.496 1082.21 997.72 1039.12C1163.58 1009.12 1308.15 1025.66 1405.53 1044.57" stroke="#EACFFB" stroke-opacity="0.3" stroke-width="5" stroke-miterlimit="10"/>
<path d="M-2125.69 445.189C-1992 512.773 -1873.95 601.036 -1777.22 705.742C-1549.52 954.63 -1583.33 1154.18 -1451.34 1183.94C-1247.39 1229.98 -1109.84 766.104 -678.965 688.589C-362.936 631.746 -44.1683 810.704 29.5563 852.126C317.405 1013.74 353.612 1195.61 561.392 1198.32C713.345 1200.44 759.369 1103.99 997.54 1060.91C1163.35 1030.92 1307.92 1047.45 1405.35 1066.36" stroke="#EACFFB" stroke-opacity="0.3" stroke-width="5" stroke-miterlimit="10"/>
<path d="M-2125.76 466.97C-1992.08 534.567 -1874.04 622.828 -1777.3 727.523C-1549.6 976.411 -1583.4 1175.96 -1451.47 1205.72C-1247.57 1251.77 -1109.91 787.885 -679.086 710.42C-363.004 653.574 -44.2902 832.536 29.5414 873.949C317.337 1035.57 353.598 1217.44 561.378 1220.14C713.277 1222.27 759.3 1125.82 997.525 1082.73C1163.39 1052.78 1307.96 1069.27 1405.34 1088.18" stroke="#EACFFB" stroke-opacity="0.3" stroke-width="5" stroke-miterlimit="10"/>
<path d="M-2125.72 488.787C-1992 556.343 -1873.95 644.611 -1777.25 749.341C-1549.56 998.182 -1583.36 1197.73 -1451.38 1227.49C-1247.58 1273.59 -1109.88 809.563 -679.156 732.2C-363.13 675.311 -44.363 854.269 29.4151 895.686C317.264 1057.3 353.471 1239.17 561.251 1241.88C713.204 1244 759.228 1147.55 997.399 1104.47C1163.21 1074.53 1307.78 1091.01 1405.21 1109.92" stroke="#EACFFB" stroke-opacity="0.3" stroke-width="5" stroke-miterlimit="10"/>
<path d="M-2125.95 510.626C-1992.24 578.195 -1874.2 666.46 -1777.48 771.179C-1549.79 1020.02 -1583.59 1219.57 -1451.66 1249.38C-1247.7 1295.42 -1110.1 831.541 -679.279 754.03C-363.2 697.137 -44.4864 876.099 29.3488 917.559C317.141 1079.13 353.405 1261.05 561.185 1263.75C713.137 1265.87 759.111 1169.47 997.336 1126.39C1163.2 1096.39 1307.77 1112.88 1405.15 1131.84" stroke="#EACFFB" stroke-opacity="0.3" stroke-width="5" stroke-miterlimit="10"/>
<path d="M-2126.08 532.366C-1992.37 599.935 -1874.33 688.2 -1777.61 792.919C-1549.92 1041.76 -1583.72 1241.31 -1451.74 1271.12C-1247.83 1317.16 -1110.23 853.281 -679.349 775.859C-363.323 718.97 -44.5559 897.928 29.2259 939.392C317.071 1100.96 353.282 1282.88 561.062 1285.58C713.014 1287.71 759.042 1191.3 997.213 1148.22C1163.02 1118.23 1307.59 1134.71 1405.02 1153.67" stroke="#EACFFB" stroke-opacity="0.3" stroke-width="5" stroke-miterlimit="10"/>
<path d="M-2125.99 554.134C-1992.3 621.718 -1874.25 709.981 -1777.52 814.687C-1549.82 1063.58 -1583.63 1263.08 -1451.7 1292.89C-1247.89 1339.03 -1110.15 875.003 -679.48 797.551C-363.397 740.704 -44.6302 919.662 29.148 961.08C316.94 1122.65 353.204 1304.57 560.984 1307.27C712.936 1309.39 758.911 1213 997.135 1169.91C1163 1139.91 1307.56 1156.4 1404.95 1175.36" stroke="#EACFFB" stroke-opacity="0.3" stroke-width="5" stroke-miterlimit="10"/>
<path d="M-2126.27 576.068C-1992.56 643.636 -1874.51 731.901 -1777.8 836.621C-1550.1 1085.51 -1583.91 1285.01 -1451.92 1314.82C-1247.96 1360.86 -1110.41 896.983 -679.539 819.467C-363.52 762.485 -44.7532 941.443 29.025 982.861C316.874 1144.47 353.081 1326.35 560.861 1329.05C712.813 1331.17 758.837 1234.73 997.008 1191.64C1162.82 1161.65 1307.38 1178.14 1404.82 1197.1" stroke="#EACFFB" stroke-opacity="0.3" stroke-width="5" stroke-miterlimit="10"/>
<path d="M-2126.35 597.712C-1992.66 665.296 -1874.61 753.559 -1777.88 858.265C-1550.18 1107.15 -1583.99 1306.66 -1452.06 1336.47C-1248.1 1382.51 -1110.5 918.627 -679.663 841.302C-363.58 784.455 -44.8128 963.413 28.9654 1004.83C316.761 1166.45 353.021 1348.32 560.802 1351.02C712.754 1353.14 758.724 1256.7 996.949 1213.61C1162.81 1183.62 1307.38 1200.1 1404.76 1219.07" stroke="#EACFFB" stroke-opacity="0.3" stroke-width="5" stroke-miterlimit="10"/>
<path d="M-2126.26 619.48C-1992.57 687.064 -1874.52 775.327 -1777.79 880.033C-1550.09 1128.92 -1583.9 1328.47 -1451.91 1358.23C-1248.15 1404.47 -1110.41 940.442 -679.748 862.897C-363.719 806.054 -44.9516 985.012 28.8266 1026.43C316.676 1188.04 352.883 1369.92 560.663 1372.62C712.615 1374.74 758.639 1278.3 996.81 1235.21C1162.62 1205.22 1307.24 1221.75 1404.62 1240.67" stroke="#EACFFB" stroke-opacity="0.3" stroke-width="5" stroke-miterlimit="10"/>
<path d="M-2126.53 641.505C-1992.84 709.102 -1874.8 797.364 -1778.06 902.058C-1550.36 1150.95 -1584.16 1350.5 -1452.23 1380.26C-1248.27 1426.3 -1110.67 962.42 -679.853 884.909C-363.788 827.83 -45.0212 1006.79 28.7569 1048.21C316.606 1209.82 352.813 1391.69 560.593 1394.4C712.545 1396.52 758.516 1300.08 996.74 1256.99C1162.6 1226.99 1307.17 1243.52 1404.55 1262.44" stroke="#EACFFB" stroke-opacity="0.3" stroke-width="5" stroke-miterlimit="10"/>
<path d="M-2126.67 663.108C-1992.97 730.663 -1874.92 818.913 -1778.2 923.615C-1550.5 1172.5 -1584.31 1372.05 -1452.32 1401.81C-1248.36 1447.9 -1110.82 984.023 -679.944 906.462C-363.915 849.619 -45.1478 1028.58 28.6304 1069.99C316.479 1231.61 352.74 1413.48 560.467 1416.19C712.419 1418.31 758.443 1321.86 996.614 1278.78C1162.42 1248.83 1307.05 1265.31 1404.42 1284.23" stroke="#EACFFB" stroke-opacity="0.3" stroke-width="5" stroke-miterlimit="10"/>
<path d="M-2126.53 684.864C-1992.82 752.432 -1874.77 840.698 -1778.06 945.417C-1550.36 1194.26 -1584.17 1393.81 -1452.23 1423.62C-1248.42 1469.9 -1110.67 1005.87 -680.067 928.285C-363.987 871.391 -45.2203 1050.35 28.5614 1091.81C316.407 1253.38 352.614 1435.25 560.398 1438.01C712.35 1440.13 758.321 1343.68 996.549 1300.64C1162.41 1270.65 1306.98 1287.13 1404.36 1306.1" stroke="#EACFFB" stroke-opacity="0.3" stroke-width="5" stroke-miterlimit="10"/>
<path d="M-2126.87 706.665C-1993.16 774.234 -1875.11 862.499 -1778.4 967.219C-1550.7 1216.06 -1584.51 1415.61 -1452.52 1445.42C-1248.56 1491.45 -1110.96 1027.58 -680.137 950.065C-364.112 893.176 -45.3551 1071.99 28.491 1113.59C316.283 1275.17 352.547 1457.08 560.274 1459.79C712.226 1461.91 758.253 1365.51 996.425 1322.43C1162.28 1292.43 1306.85 1308.92 1404.24 1327.88" stroke="#EACFFB" stroke-opacity="0.3" stroke-width="5" stroke-miterlimit="10"/>
<path d="M-2126.94 728.446C-1993.24 796.03 -1875.2 884.293 -1778.47 988.999C-1550.77 1237.89 -1584.58 1437.39 -1452.64 1467.2C-1248.63 1513.23 -1111.08 1049.36 -680.263 971.85C-364.184 914.957 -45.4163 1093.92 28.3655 1135.38C316.211 1296.95 352.421 1478.87 560.202 1481.57C712.154 1483.69 758.128 1387.29 996.353 1344.21C1162.21 1314.21 1306.78 1330.7 1404.16 1349.66" stroke="#EACFFB" stroke-opacity="0.3" stroke-width="5" stroke-miterlimit="10"/>
</g>
<defs>
<filter id="filter0_d_24_5" x="-2132.07" y="159.741" width="3543.2" height="1332.36" filterUnits="userSpaceOnUse" color-interpolation-filters="sRGB">
<feFlood flood-opacity="0" result="BackgroundImageFix"/>
<feColorMatrix in="SourceAlpha" type="matrix" values="0 0 0 0 0 0 0 0 0 0 0 0 0 0 0 0 0 0 127 0" result="hardAlpha"/>
<feOffset dy="4"/>
<feGaussianBlur stdDeviation="2"/>
<feComposite in2="hardAlpha" operator="out"/>
<feColorMatrix type="matrix" values="0 0 0 0 0 0 0 0 0 0 0 0 0 0 0 0 0 0 0.25 0"/>
<feBlend mode="normal" in2="BackgroundImageFix" result="effect1_dropShadow_24_5"/>
<feBlend mode="normal" in="SourceGraphic" in2="effect1_dropShadow_24_5" result="shape"/>
</filter>
</defs>
</svg>
