<svg width="273" height="265" viewBox="0 0 273 265" fill="none" xmlns="http://www.w3.org/2000/svg">
<path d="M30.458 29.7674C30.4866 29.8264 30.5074 29.8888 30.5199 29.9532L30.6713 30.5036C30.7476 30.807 30.8418 31.1056 30.9534 31.398C31.0772 31.742 31.2079 32.1479 31.4074 32.5813L31.7102 33.2693L32.1023 34.0124C32.2369 34.2854 32.3886 34.5496 32.5564 34.8036C32.7284 35.065 32.8798 35.354 33.0862 35.6292C35.0188 38.4556 37.7252 40.6651 40.8812 41.9932C41.8387 42.394 42.8314 42.7049 43.8465 42.922C44.9262 43.1362 46.0173 43.2878 47.1145 43.376C49.3642 43.5962 51.7998 43.72 54.1321 44.6557C56.4878 45.7001 58.5765 47.2642 60.2415 49.2309C62.0037 51.0996 63.4283 53.2599 64.4521 55.6155C64.9149 56.7528 65.198 57.9551 65.2914 59.1794C65.3716 60.349 65.2975 61.5241 65.0713 62.6744C64.6113 64.7829 63.9903 66.853 63.2137 68.8664C62.5515 70.6132 62.0584 72.4194 61.7414 74.2604C61.4842 75.7788 61.5428 77.3339 61.9134 78.8287C62.1935 79.9563 62.7016 81.0146 63.4063 81.9384C63.8514 82.5246 64.3964 83.0276 65.0163 83.4245C65.4359 83.6928 65.7043 83.796 65.7043 83.8098C65.4654 83.7152 65.2352 83.6001 65.0163 83.4658C64.3819 83.0781 63.8226 82.5794 63.365 81.9935C62.636 81.0696 62.1086 80.0032 61.8171 78.8631C61.4279 77.3508 61.3553 75.7745 61.6038 74.2328C61.9179 72.3815 62.4062 70.564 63.0623 68.8045C63.8262 66.7891 64.4379 64.7193 64.8924 62.6125C65.1062 61.4792 65.1755 60.3233 65.0988 59.1725C65.0067 57.9732 64.7258 56.796 64.2663 55.6844C63.2498 53.3531 61.8394 51.2143 60.097 49.3616C58.4541 47.422 56.3937 45.8791 54.0702 44.8484C51.7929 43.9196 49.378 43.7957 47.1214 43.5687C46.0176 43.4716 44.9198 43.3154 43.8327 43.1008C42.7976 42.8929 41.7842 42.5889 40.8055 42.1927C37.6228 40.8431 34.9038 38.5928 32.983 35.7186C32.7766 35.4434 32.6183 35.1544 32.4532 34.8861C32.2899 34.6259 32.1407 34.3572 32.006 34.0812L31.6207 33.3381L31.3249 32.6501C31.1551 32.2599 31.0081 31.8602 30.8846 31.453C30.7812 31.1581 30.6962 30.8571 30.63 30.5517C30.575 30.3109 30.5268 30.1252 30.4993 29.9944C30.4798 29.9199 30.466 29.844 30.458 29.7674Z" fill="#455A64"/>
<path d="M44.4451 22.4746L44.5964 22.6122L45.023 23.025C45.2087 23.2107 45.4151 23.4584 45.711 23.713C46.0068 23.9675 46.2339 24.3459 46.5091 24.7587C47.2041 25.7493 47.7748 26.8214 48.2084 27.9511C48.7972 29.4442 49.1477 31.0206 49.2473 32.6226C49.294 33.5526 49.2595 34.485 49.1441 35.409C49.0033 36.41 48.7872 37.3989 48.4974 38.3674C47.9263 40.3763 47.1214 42.4403 46.5159 44.7039C46.2185 45.8581 46.0501 47.0419 46.0137 48.2333C45.9869 49.4757 46.114 50.7167 46.3921 51.9279C46.9729 54.4964 48.1356 56.8973 49.7908 58.9455C51.4508 60.9761 53.5029 62.6514 55.8246 63.8715C57.9791 65.0233 60.3005 65.8311 62.7046 66.2658C65.0025 66.6923 67.2316 66.8024 69.2956 67.1189C71.2281 67.3497 73.105 67.9179 74.8409 68.7976C77.3181 70.1859 79.2567 72.3667 80.3449 74.9896C80.6397 75.6943 80.87 76.4243 81.0329 77.1706C81.0742 77.4251 81.1017 77.6178 81.1292 77.7623C81.1339 77.8287 81.1339 77.8954 81.1292 77.9618C81.1292 77.9618 81.1292 77.893 81.0811 77.7623C81.0329 77.6315 81.0123 77.432 80.9641 77.1843C80.7943 76.4466 80.5642 75.7241 80.2761 75.024C79.7936 73.9263 79.1616 72.9006 78.3979 71.9762C77.386 70.7517 76.1481 69.7333 74.7515 68.9765C73.0261 68.1158 71.1633 67.5639 69.2475 67.3459C67.1835 67.0363 64.9612 66.9331 62.6427 66.5135C60.2162 66.0733 57.8723 65.2611 55.6939 64.1055C53.3437 62.872 51.2659 61.1779 49.5844 59.1243C47.9188 57.054 46.7428 54.6338 46.1444 52.0448C45.8721 50.8141 45.7474 49.5554 45.7729 48.2952C45.8101 47.0876 45.9808 45.8877 46.282 44.7176C46.8668 42.4335 47.7131 40.3695 48.291 38.3743C48.5937 37.4183 48.8237 36.4409 48.979 35.4503C49.1018 34.5384 49.1409 33.6172 49.0959 32.6983C48.9379 29.9011 48.0223 27.1995 46.4471 24.8826C46.1788 24.4629 45.8967 24.1327 45.6697 23.8231C45.4427 23.5135 45.2156 23.2864 45.0367 23.1351L44.6308 22.7016C44.5622 22.6317 44.5 22.5557 44.4451 22.4746Z" fill="#455A64"/>
<path d="M78.6318 71.7767C78.4693 71.9567 78.2896 72.1203 78.0951 72.2652C77.7374 72.5748 77.2076 73.0013 76.5403 73.5104C74.8093 74.8476 73.0088 76.0923 71.1463 77.2394C69.2822 78.3859 67.3602 79.4354 65.3878 80.3835C64.631 80.7482 64.0118 81.0303 63.5852 81.2092C63.3659 81.3207 63.1352 81.4083 62.8972 81.4706C63.1021 81.3409 63.3159 81.226 63.5371 81.1266L65.3121 80.2391C66.8051 79.4823 68.8415 78.3815 71.0156 77.0399C73.1897 75.6983 75.0886 74.3704 76.4371 73.3797L78.0263 72.1964C78.2169 72.0409 78.4193 71.9005 78.6318 71.7767Z" fill="#455A64"/>
<path d="M74.9373 68.8871C74.7675 69.0129 74.5854 69.1212 74.3938 69.2104L72.8939 70.0223C71.628 70.7103 69.8943 71.6872 68.016 72.8362C66.1378 73.9852 64.4866 75.0997 63.3032 75.9184L61.9272 76.8954C61.7591 77.0206 61.5821 77.1332 61.3975 77.2325C61.5424 77.0803 61.7013 76.9421 61.8722 76.8197C62.1887 76.5652 62.6565 76.2143 63.2482 75.7877C64.4109 74.9277 66.0621 73.7994 67.9403 72.6436C69.8186 71.4877 71.573 70.5314 72.8595 69.8916C73.5063 69.5613 74.0291 69.3068 74.4007 69.1416C74.5724 69.0424 74.7518 68.9573 74.9373 68.8871Z" fill="#455A64"/>
<path d="M69.6398 67.7725C69.3076 68.0622 68.9508 68.3224 68.5734 68.55C67.8854 68.9972 66.9566 69.6026 65.897 70.2424C64.8375 70.8823 63.8674 71.4258 63.145 71.8111C62.7681 72.0357 62.3721 72.2268 61.9617 72.3821C62.3091 72.123 62.6773 71.8929 63.0625 71.6941L65.7732 70.0705L68.4839 68.4399C68.8479 68.1825 69.2348 67.9591 69.6398 67.7725Z" fill="#455A64"/>
<path d="M64.7 61.9245C64.4548 62.1495 64.1848 62.3457 63.895 62.5093L61.9067 63.844L59.9321 65.22C59.6725 65.4266 59.391 65.6043 59.0928 65.7498C59.3074 65.4871 59.5575 65.2556 59.8358 65.0618C60.3174 64.6765 60.9985 64.1743 61.776 63.6445C62.5534 63.1147 63.2758 62.6675 63.84 62.3648C64.1066 62.1818 64.3956 62.0339 64.7 61.9245Z" fill="#455A64"/>
<path d="M64.3078 56.7095C64.3078 56.7439 63.723 57.0603 62.7804 57.6039C61.8379 58.1474 60.5513 58.9386 59.1959 59.888C57.8406 60.8375 56.6572 61.7869 55.8247 62.4887C55.386 62.8884 54.9267 63.265 54.4487 63.617C54.5425 63.4879 54.6485 63.3681 54.7652 63.2592C54.9785 63.0391 55.3019 62.7364 55.7078 62.3648C57.827 60.4514 60.1721 58.804 62.691 57.4594C63.1726 57.2048 63.5716 57.0122 63.8468 56.8815C63.9922 56.804 64.1472 56.7462 64.3078 56.7095Z" fill="#455A64"/>
<path d="M61.7278 52.664C61.7622 52.7191 59.3473 54.4597 56.3338 56.565C53.3204 58.6703 50.8298 60.3215 50.8298 60.2733C50.8298 60.2252 53.2034 58.4708 56.2169 56.3724C59.2303 54.274 61.6865 52.609 61.7278 52.664Z" fill="#455A64"/>
<path d="M59.6706 48.1026C59.5274 48.2337 59.3706 48.3491 59.2027 48.4466C58.8587 48.6805 58.4253 48.9764 57.9024 49.3204C56.8016 50.0565 55.288 51.0885 53.6437 52.2581C51.9994 53.4277 50.5408 54.5285 49.5157 55.3266L48.2635 56.276C48.117 56.4001 47.9579 56.5085 47.7888 56.5994C47.9128 56.4506 48.0536 56.3167 48.2085 56.2004C48.4837 55.9596 48.8965 55.6156 49.4125 55.1959C50.4445 54.3634 51.8893 53.242 53.5405 52.0724C55.1917 50.9028 56.7191 49.8845 57.8405 49.1828C58.4047 48.8319 58.8656 48.5567 59.2165 48.3709C59.3583 48.2662 59.5104 48.1763 59.6706 48.1026Z" fill="#455A64"/>
<path d="M55.4255 45.5776C55.4668 45.6258 53.4166 47.1119 50.8572 48.8938C48.2979 50.6757 46.1857 52.0655 46.1444 52.0173C46.1031 51.9692 48.1603 50.4762 50.7196 48.7012C53.279 46.9261 55.3911 45.5226 55.4255 45.5776Z" fill="#455A64"/>
<path d="M50.9742 43.032C50.2452 43.7702 49.4583 44.4489 48.6212 45.0616C47.8354 45.7391 47.0006 46.3577 46.1238 46.9124C46.8557 46.1669 47.6422 45.4769 48.4767 44.8484C49.2637 44.1827 50.0984 43.5757 50.9742 43.032Z" fill="#455A64"/>
<path d="M47.9745 36.6405C47.6682 36.9795 47.332 37.2904 46.97 37.5693C46.3302 38.1128 45.422 38.849 44.39 39.6333C43.358 40.4176 42.4017 41.0644 41.6931 41.5253C41.3244 41.7926 40.9304 42.0231 40.5166 42.2133C40.8571 41.9085 41.2206 41.6302 41.6036 41.3808C42.2916 40.8855 43.2273 40.2044 44.2524 39.4407C45.2776 38.677 46.1995 37.9615 46.8668 37.4455C47.214 37.148 47.5844 36.8788 47.9745 36.6405Z" fill="#455A64"/>
<path d="M49.2681 32.2924C49.1276 32.4276 48.973 32.5475 48.8071 32.6501C48.5113 32.8703 48.0641 33.173 47.5137 33.5376C46.406 34.2738 44.8511 35.2576 43.0967 36.2896C41.3423 37.3216 39.7118 38.161 38.5215 38.7527C37.9299 39.0485 37.4414 39.2824 37.1043 39.4407C36.9343 39.5341 36.7543 39.608 36.5676 39.6608C36.7232 39.5471 36.8891 39.448 37.063 39.365L38.439 38.6151C39.6086 37.989 41.191 37.1084 42.9729 36.0901C44.7548 35.0719 46.2891 34.1224 47.4174 33.4207L48.7521 32.5951C48.9119 32.4747 49.0851 32.3731 49.2681 32.2924Z" fill="#455A64"/>
<path d="M47.204 27.6483C47.0474 27.7883 46.8794 27.9148 46.7018 28.0267C46.3715 28.2607 45.8899 28.5909 45.2845 28.9968C44.0805 29.7949 42.4017 30.8819 40.5235 32.0447C38.6453 33.2074 36.9321 34.2256 35.7075 34.9411C35.0814 35.2989 34.5723 35.5879 34.2146 35.7805C34.0341 35.887 33.8454 35.979 33.6504 36.0557C33.8107 35.9204 33.9835 35.8006 34.1664 35.6979L35.625 34.7967L40.441 31.8451L45.257 28.8592L46.7155 27.9511C46.8684 27.8349 47.032 27.7336 47.204 27.6483Z" fill="#455A64"/>
<path d="M228.23 164.801C228.196 164.836 227.687 164.326 226.696 163.48C226.201 163.061 225.589 162.551 224.846 162.008C224.007 161.392 223.124 160.84 222.204 160.357C221.672 160.084 221.12 159.854 220.552 159.669C219.957 159.451 219.329 159.34 218.695 159.338C218.382 159.338 218.073 159.411 217.794 159.552C217.52 159.694 217.302 159.924 217.174 160.205C217.041 160.513 216.978 160.847 216.989 161.182C216.995 161.544 217.041 161.904 217.126 162.256C217.31 163.001 217.578 163.723 217.924 164.409C218.287 165.137 218.693 165.843 219.142 166.521C221.069 169.367 223.482 171.852 226.27 173.862C226.929 174.334 227.618 174.761 228.334 175.142C229.009 175.511 229.725 175.802 230.466 176.009C230.814 176.106 231.172 176.163 231.533 176.181C231.866 176.2 232.2 176.146 232.51 176.022C232.801 175.907 233.043 175.696 233.198 175.424C233.345 175.148 233.427 174.842 233.439 174.529C233.459 173.894 233.366 173.261 233.163 172.658C232.976 172.084 232.746 171.526 232.475 170.986C232.016 170.053 231.49 169.153 230.9 168.296C230.377 167.539 229.895 166.92 229.483 166.404C228.671 165.393 228.175 164.863 228.21 164.829C228.244 164.794 228.361 164.932 228.616 165.173C228.87 165.413 229.221 165.771 229.655 166.26C230.188 166.851 230.691 167.469 231.161 168.11C231.792 168.963 232.353 169.865 232.84 170.807C233.12 171.363 233.361 171.938 233.562 172.527C233.793 173.19 233.903 173.89 233.886 174.591C233.879 174.978 233.78 175.358 233.597 175.699C233.399 176.065 233.084 176.353 232.702 176.518C232.324 176.676 231.915 176.749 231.505 176.731C231.103 176.719 230.704 176.661 230.315 176.559C229.534 176.346 228.779 176.046 228.065 175.665C227.319 175.255 226.602 174.795 225.919 174.289C223.061 172.25 220.597 169.709 218.647 166.789C218.183 166.094 217.767 165.367 217.401 164.615C217.045 163.889 216.77 163.125 216.583 162.338C216.489 161.948 216.443 161.549 216.445 161.148C216.434 160.737 216.519 160.33 216.693 159.958C216.869 159.58 217.167 159.272 217.539 159.084C217.886 158.914 218.267 158.827 218.654 158.829C219.345 158.836 220.03 158.967 220.676 159.215C221.259 159.431 221.825 159.691 222.369 159.992C223.295 160.505 224.178 161.092 225.011 161.746C225.747 162.324 226.345 162.854 226.82 163.308C227.295 163.762 227.646 164.127 227.873 164.381C228.1 164.636 228.244 164.787 228.23 164.801Z" fill="#455A64"/>
<path d="M221.633 166.452C221.674 166.452 221.474 167.14 221.213 168.365C221.082 168.984 220.938 169.741 220.821 170.622C220.687 171.618 220.632 172.623 220.656 173.628C220.669 174.208 220.729 174.785 220.834 175.355C220.934 175.96 221.142 176.543 221.447 177.075C221.603 177.336 221.814 177.559 222.066 177.729C222.317 177.892 222.613 177.973 222.912 177.963C223.24 177.954 223.561 177.874 223.855 177.729C224.166 177.569 224.457 177.373 224.722 177.144C225.284 176.657 225.79 176.107 226.228 175.506C226.692 174.873 227.113 174.208 227.487 173.518C229.051 170.585 230.065 167.39 230.48 164.093C230.57 163.314 230.609 162.53 230.597 161.746C230.586 161.002 230.492 160.261 230.315 159.538C230.226 159.2 230.101 158.873 229.944 158.561C229.798 158.272 229.591 158.019 229.338 157.818C229.102 157.633 228.813 157.527 228.513 157.515C228.209 157.509 227.909 157.571 227.632 157.694C227.077 157.952 226.571 158.306 226.139 158.74C225.725 159.147 225.343 159.587 224.997 160.054C224.389 160.855 223.846 161.704 223.373 162.593C222.96 163.377 222.644 164.079 222.396 164.657C221.901 165.819 221.674 166.48 221.633 166.466C221.638 166.294 221.673 166.124 221.736 165.964C221.825 165.641 221.97 165.173 222.183 164.588C222.396 164.003 222.692 163.274 223.084 162.462C223.53 161.537 224.052 160.651 224.646 159.813C224.992 159.321 225.381 158.861 225.809 158.437C226.271 157.95 226.819 157.551 227.426 157.261C227.765 157.107 228.133 157.03 228.506 157.034C228.908 157.044 229.297 157.178 229.62 157.419C229.934 157.662 230.192 157.969 230.377 158.32C230.56 158.665 230.704 159.03 230.804 159.407C230.999 160.167 231.106 160.948 231.12 161.733C231.144 162.544 231.109 163.355 231.017 164.161C230.616 167.537 229.577 170.806 227.955 173.793C227.567 174.512 227.127 175.201 226.641 175.857C226.176 176.489 225.638 177.064 225.038 177.57C224.741 177.82 224.415 178.035 224.068 178.21C223.714 178.394 223.324 178.497 222.926 178.513C222.526 178.523 222.132 178.41 221.798 178.19C221.491 177.976 221.233 177.699 221.041 177.378C220.715 176.791 220.498 176.15 220.401 175.486C220.298 174.893 220.248 174.292 220.25 173.69C220.245 172.662 220.33 171.635 220.504 170.622C220.628 169.862 220.791 169.108 220.993 168.365C221.158 167.753 221.316 167.285 221.426 166.989C221.461 166.799 221.531 166.617 221.633 166.452Z" fill="#455A64"/>
<path d="M223.889 163.281C223.889 163.329 223.201 163.508 222.039 163.934C221.447 164.148 220.731 164.423 219.913 164.787C218.995 165.199 218.112 165.682 217.271 166.232C216.783 166.545 216.322 166.9 215.895 167.292C215.432 167.692 215.047 168.175 214.76 168.716C214.619 168.984 214.539 169.28 214.526 169.583C214.52 169.885 214.609 170.181 214.78 170.429C214.958 170.693 215.193 170.914 215.468 171.076C215.768 171.254 216.086 171.4 216.418 171.509C217.13 171.727 217.863 171.865 218.606 171.922C219.389 171.974 220.175 171.974 220.959 171.922C222.614 171.825 224.257 171.569 225.864 171.158C227.474 170.757 229.043 170.204 230.549 169.507C231.261 169.173 231.95 168.794 232.613 168.372C233.241 167.982 233.82 167.521 234.34 166.996C234.585 166.746 234.797 166.466 234.973 166.163C235.144 165.89 235.252 165.582 235.29 165.262C235.321 164.965 235.261 164.665 235.118 164.402C234.963 164.131 234.752 163.897 234.498 163.714C233.984 163.386 233.416 163.153 232.82 163.026C232.257 162.887 231.684 162.793 231.107 162.744C230.104 162.665 229.096 162.665 228.093 162.744C227.206 162.813 226.442 162.909 225.816 162.999C224.577 163.191 223.896 163.349 223.883 163.301C224.033 163.22 224.196 163.162 224.364 163.129C224.681 163.033 225.155 162.909 225.781 162.778C226.407 162.648 227.157 162.524 228.066 162.428C229.087 162.319 230.116 162.296 231.141 162.359C231.741 162.395 232.337 162.482 232.923 162.62C233.582 162.753 234.21 163.01 234.774 163.377C235.085 163.583 235.345 163.855 235.537 164.175C235.741 164.522 235.83 164.924 235.792 165.324C235.757 165.721 235.632 166.104 235.427 166.445C235.234 166.78 235.003 167.092 234.739 167.374C234.194 167.943 233.585 168.447 232.923 168.874C232.244 169.318 231.536 169.716 230.804 170.064C229.257 170.785 227.644 171.354 225.988 171.764C224.345 172.183 222.665 172.439 220.972 172.527C220.163 172.572 219.351 172.559 218.544 172.486C217.76 172.424 216.986 172.27 216.239 172.025C215.868 171.905 215.512 171.741 215.179 171.537C214.841 171.329 214.55 171.052 214.326 170.725C214.108 170.39 213.997 169.996 214.01 169.597C214.027 169.221 214.128 168.854 214.306 168.523C214.63 167.937 215.059 167.414 215.571 166.982C216.026 166.586 216.511 166.227 217.023 165.909C217.901 165.374 218.821 164.914 219.775 164.533C220.489 164.239 221.217 163.982 221.956 163.762C222.562 163.583 223.043 163.466 223.367 163.398C223.533 163.331 223.71 163.291 223.889 163.281Z" fill="#455A64"/>
<path d="M227.357 167.25C227.445 167.604 227.427 167.976 227.304 168.32C227.181 168.663 226.959 168.962 226.666 169.179C226.373 169.396 226.022 169.522 225.658 169.539C225.293 169.557 224.932 169.466 224.619 169.279C224.307 169.091 224.057 168.815 223.901 168.485C223.745 168.155 223.691 167.787 223.744 167.426C223.798 167.066 223.957 166.729 224.202 166.459C224.447 166.189 224.767 165.997 225.121 165.909C225.595 165.792 226.096 165.868 226.515 166.119C226.934 166.37 227.237 166.777 227.357 167.25Z" fill="#455A64"/>
<path d="M264.942 135.664L264.736 135.568L264.137 135.265L261.832 134.068L253.363 129.617H253.439L227.35 139.586L227.116 139.675L227.185 139.435L227.983 136.552C229.806 129.975 231.533 123.748 233.047 118.272V118.23L247.495 107.401L251.623 104.347L252.716 103.542L252.999 103.342C253.058 103.292 253.093 103.271 253.102 103.28L253.012 103.356L252.737 103.576L251.664 104.402L247.591 107.504L233.184 118.409L233.225 118.347C231.712 123.851 229.999 130.043 228.182 136.641C227.907 137.625 227.639 138.609 227.384 139.524L227.219 139.373L253.363 129.472H253.404L261.832 133.992L264.11 135.224L264.701 135.554L264.942 135.664Z" fill="#BA68C8"/>
<path d="M230.7 139.269L229.139 139.73L228.636 141.278L227.715 139.937H226.084L227.075 138.643L226.572 137.095L228.107 137.639L229.421 136.683L229.38 138.313L230.7 139.269Z" fill="#BA68C8"/>
<path d="M235.207 117.769L234.223 118.127L233.955 119.145L233.308 118.32L232.255 118.382L232.847 117.508L232.462 116.531L233.473 116.82L234.285 116.153L234.319 117.205L235.207 117.769Z" fill="#BA68C8"/>
<path d="M254.959 102.613L254.244 103.693L254.719 104.89L253.473 104.539L252.483 105.365L252.428 104.071L251.341 103.383L252.551 102.936L252.868 101.684L253.673 102.695L254.959 102.613Z" fill="#BA68C8"/>
<path d="M266.525 134.302L265.802 135.382L266.284 136.579L265.039 136.229L264.041 137.054L263.993 135.761L262.899 135.073L264.11 134.625L264.433 133.373L265.231 134.385L266.525 134.302Z" fill="#BA68C8"/>
<path d="M254.388 128.998L253.927 129.686L254.237 130.449L253.439 130.222L252.806 130.752L252.778 129.926L252.077 129.486L252.854 129.197L253.054 128.399L253.57 129.053L254.388 128.998Z" fill="#BA68C8"/>
<path d="M187.026 19.6455C188.201 12.4453 183.317 5.65575 176.117 4.48055C168.917 3.30534 162.127 8.18954 160.952 15.3897C159.777 22.5899 164.661 29.3795 171.861 30.5547C179.061 31.7299 185.851 26.8457 187.026 19.6455Z" fill="#BA68C8"/>
<g opacity="0.3">
<path d="M172.255 21.649C172.255 22.0749 172.129 22.4912 171.892 22.8454C171.655 23.1995 171.319 23.4755 170.926 23.6385C170.532 23.8015 170.099 23.8441 169.681 23.761C169.264 23.678 168.88 23.4729 168.579 23.1717C168.278 22.8705 168.072 22.4868 167.989 22.0691C167.906 21.6514 167.949 21.2184 168.112 20.8249C168.275 20.4314 168.551 20.0951 168.905 19.8585C169.259 19.6218 169.676 19.4955 170.101 19.4955C170.673 19.4955 171.22 19.7224 171.624 20.1263C172.028 20.5301 172.255 21.0779 172.255 21.649Z" fill="white"/>
</g>
<g opacity="0.3">
<path d="M169.228 15.4295C169.228 15.6771 169.154 15.9192 169.017 16.1251C168.879 16.331 168.684 16.4915 168.455 16.5863C168.226 16.6811 167.974 16.7059 167.731 16.6576C167.488 16.6093 167.265 16.49 167.09 16.3149C166.915 16.1398 166.796 15.9166 166.747 15.6738C166.699 15.4309 166.724 15.1791 166.819 14.9503C166.913 14.7215 167.074 14.5259 167.28 14.3883C167.486 14.2507 167.728 14.1773 167.976 14.1773C168.308 14.1773 168.626 14.3092 168.861 14.5441C169.096 14.7789 169.228 15.0974 169.228 15.4295Z" fill="white"/>
</g>
<path d="M161.185 20.7408C161.247 20.9679 149.881 31.8727 152.812 34.1981C155.743 36.5236 168.065 30.5586 178.571 22.0756C189.076 13.5925 198.667 3.28627 196.039 0.561792C193.411 -2.16269 180.291 5.90756 180.291 5.90756L181.887 6.90515C181.887 6.90515 189.819 1.81395 192.331 3.78851C194.842 5.76307 187.687 13.4893 177.587 20.8647C167.487 28.24 157.724 33.4138 156.211 31.3911C154.697 29.3684 161.845 22.6328 161.845 22.6328L161.185 20.7408Z" fill="#BA68C8"/>
<g opacity="0.3">
<path d="M161.185 20.7408C161.247 20.9679 149.881 31.8727 152.812 34.1981C155.743 36.5236 168.065 30.5586 178.571 22.0756C189.076 13.5925 198.667 3.28627 196.039 0.561792C193.411 -2.16269 180.291 5.90756 180.291 5.90756L181.887 6.90515C181.887 6.90515 189.819 1.81395 192.331 3.78851C194.842 5.76307 187.687 13.4893 177.587 20.8647C167.487 28.24 157.724 33.4138 156.211 31.3911C154.697 29.3684 161.845 22.6328 161.845 22.6328L161.185 20.7408Z" fill="black"/>
</g>
<g opacity="0.3">
<path d="M166.751 8.21923C166.854 8.34995 165.96 9.10675 164.948 10.6341C163.604 12.5919 162.863 14.9002 162.815 17.2744C162.767 19.6487 163.416 21.9849 164.68 23.9951C165.636 25.5568 166.496 26.3549 166.386 26.4788C166.276 26.6026 165.258 25.9559 164.081 24.4148C163.4 23.4979 162.86 22.4846 162.478 21.4082C161.502 18.7318 161.561 15.7874 162.643 13.1522C163.067 12.0925 163.647 11.1022 164.363 10.2144C165.574 8.70083 166.661 8.12979 166.751 8.21923Z" fill="white"/>
</g>
<path d="M193.982 29.1688C194.018 27.6519 194.503 26.1797 195.375 24.9384C196.248 23.6971 197.469 22.7424 198.884 22.1951C200.299 21.6478 201.845 21.5325 203.326 21.8637C204.806 22.195 206.156 22.9579 207.203 24.056C208.25 25.1541 208.948 26.5381 209.208 28.0329C209.469 29.5277 209.28 31.0662 208.666 32.4538C208.052 33.8414 207.041 35.0157 205.759 35.8283C204.478 36.6409 202.984 37.0552 201.467 37.0189C199.434 36.9702 197.503 36.1159 196.099 34.6438C194.695 33.1717 193.934 31.2024 193.982 29.1688Z" fill="#BA68C8"/>
<g opacity="0.4">
<path d="M204.151 26.4168C204.156 26.169 204.235 25.9284 204.378 25.7254C204.52 25.5225 204.719 25.3664 204.951 25.277C205.182 25.1876 205.434 25.1688 205.676 25.223C205.918 25.2772 206.139 25.402 206.31 25.5816C206.48 25.7612 206.594 25.9875 206.636 26.2318C206.679 26.4761 206.647 26.7274 206.546 26.9539C206.446 27.1804 206.28 27.3719 206.07 27.5041C205.86 27.6363 205.616 27.7033 205.368 27.6965C205.204 27.6929 205.042 27.657 204.892 27.5906C204.742 27.5243 204.607 27.4289 204.493 27.31C204.38 27.191 204.292 27.0509 204.233 26.8976C204.174 26.7443 204.146 26.5809 204.151 26.4168Z" fill="black"/>
</g>
<g opacity="0.4">
<path d="M206.655 29.334C206.659 29.189 206.707 29.0486 206.791 28.9307C206.876 28.8128 206.994 28.7228 207.13 28.6723C207.266 28.6217 207.413 28.6128 207.554 28.6467C207.696 28.6806 207.823 28.7558 207.921 28.8627C208.019 28.9696 208.083 29.1033 208.105 29.2467C208.127 29.3902 208.105 29.5368 208.043 29.6679C207.981 29.799 207.881 29.9086 207.756 29.9827C207.632 30.0568 207.488 30.092 207.343 30.0839C207.154 30.0715 206.977 29.9866 206.848 29.8469C206.72 29.7073 206.651 29.5235 206.655 29.334Z" fill="black"/>
</g>
<g opacity="0.4">
<path d="M205.671 31.5699C205.743 31.5717 205.811 31.6015 205.861 31.6529C205.911 31.7044 205.939 31.7733 205.939 31.8451C205.938 31.8804 205.931 31.9151 205.916 31.9473C205.902 31.9795 205.881 32.0086 205.856 32.0329C205.83 32.0572 205.8 32.0762 205.767 32.0888C205.734 32.1015 205.699 32.1075 205.664 32.1066C205.629 32.1066 205.593 32.0994 205.561 32.0855C205.528 32.0715 205.499 32.051 205.474 32.0252C205.45 31.9995 205.431 31.969 205.419 31.9357C205.406 31.9023 205.401 31.8669 205.403 31.8314C205.405 31.7614 205.434 31.6949 205.484 31.6461C205.534 31.5972 205.601 31.5699 205.671 31.5699Z" fill="black"/>
</g>
<path d="M225.657 86.3967C225.589 86.3967 225.541 76.6821 225.541 64.704C225.541 52.726 225.589 43.0114 225.657 43.0114C225.726 43.0114 225.774 52.7191 225.774 64.704C225.774 76.689 225.719 86.3967 225.657 86.3967Z" fill="#263238"/>
<path d="M226.951 43.3829C226.398 42.5816 225.906 41.7399 225.479 40.8648H225.685V40.9199C225.33 41.8499 224.909 42.7534 224.426 43.6237C224.697 42.6655 225.047 41.7312 225.472 40.8304V40.7754L225.568 40.5552L225.678 40.7616C226.172 41.5999 226.598 42.4765 226.951 43.3829Z" fill="#263238"/>
<path d="M225.417 37.8858C225.375 37.934 225.018 37.7 224.729 37.2666C224.44 36.8332 224.371 36.4135 224.433 36.3997C224.495 36.386 224.66 36.7437 224.921 37.1428C225.183 37.5418 225.458 37.8376 225.417 37.8858Z" fill="#263238"/>
<path d="M224.736 39.138C224.866 38.6046 225.05 38.0859 225.286 37.59C225.443 37.0644 225.655 36.557 225.919 36.0764C225.877 36.6294 225.735 37.1702 225.499 37.6725C225.337 38.2038 225.078 38.7005 224.736 39.138Z" fill="#263238"/>
<path d="M222.548 48.7218C222.705 48.2844 222.838 47.8388 222.947 47.3871C222.97 46.9287 222.97 46.4694 222.947 46.0111C223.191 46.446 223.262 46.957 223.146 47.4421C223.113 47.9282 222.899 48.3844 222.548 48.7218Z" fill="#263238"/>
<path d="M222.974 46.9123C222.974 46.9123 222.919 47.0981 222.644 47.1669C222.481 47.2016 222.311 47.172 222.169 47.0843C222.085 47.0241 222.016 46.9458 221.967 46.8552C221.917 46.7646 221.889 46.664 221.884 46.5609C221.878 46.4579 221.896 46.3549 221.936 46.2597C221.976 46.1646 222.037 46.0796 222.114 46.0111C222.25 45.9145 222.416 45.8705 222.582 45.8872C222.864 45.8872 222.96 46.0936 222.933 46.1074C222.905 46.1211 222.788 46.0386 222.575 46.0523C222.511 46.0512 222.447 46.0635 222.388 46.0883C222.329 46.1132 222.276 46.1501 222.232 46.1967C222.188 46.2433 222.154 46.2986 222.133 46.3591C222.111 46.4195 222.103 46.4838 222.107 46.5477C222.11 46.6119 222.125 46.675 222.153 46.733C222.181 46.791 222.22 46.8428 222.268 46.8853C222.316 46.9277 222.373 46.9599 222.434 46.98C222.495 47 222.559 47.0074 222.623 47.0018C222.837 47.0087 222.947 46.8848 222.974 46.9123Z" fill="#263238"/>
<path d="M259.431 83.3144C259.431 83.3764 251.12 83.4314 240.855 83.4314C230.59 83.4314 222.279 83.3764 222.279 83.3144C222.279 83.2525 230.583 83.1975 240.855 83.1975C251.127 83.1975 259.431 83.2525 259.431 83.3144Z" fill="#263238"/>
<path d="M259.81 83.2663C259.271 83.1822 258.747 83.02 258.255 82.7847C257.744 82.6238 257.257 82.3922 256.81 82.0967C257.341 82.1829 257.855 82.3475 258.337 82.5852C258.859 82.7393 259.355 82.9687 259.81 83.2663Z" fill="#263238"/>
<path d="M260.216 83.4039C259.432 83.8494 258.574 84.15 257.684 84.2914C258.063 84.0439 258.478 83.8581 258.915 83.741C259.326 83.5539 259.766 83.4398 260.216 83.4039Z" fill="#263238"/>
<path d="M223.91 84.4909C224.039 84.5796 224.148 84.6937 224.231 84.8262C224.313 84.9588 224.368 85.1069 224.391 85.2615C224.474 85.5981 224.447 85.9522 224.316 86.2728C224.24 86.4708 224.111 86.6444 223.944 86.7751C223.842 86.8414 223.722 86.8767 223.6 86.8767C223.478 86.8767 223.359 86.8414 223.256 86.7751C223.081 86.6455 222.941 86.4747 222.847 86.278C222.753 86.0812 222.71 85.8644 222.72 85.6468C222.715 85.4709 222.749 85.2962 222.821 85.1355C222.892 84.9747 222.999 84.8321 223.132 84.7179C223.222 84.6407 223.326 84.5821 223.438 84.5455C223.55 84.5088 223.668 84.495 223.786 84.5047C223.951 84.5047 224.027 84.5803 224.02 84.5872C224.013 84.5941 223.931 84.5872 223.786 84.5872C223.582 84.6056 223.39 84.693 223.243 84.8349C223.136 84.9378 223.054 85.0623 223 85.2001C222.947 85.3378 222.924 85.4855 222.933 85.633C222.929 85.8124 222.966 85.9904 223.043 86.1528C223.119 86.3152 223.232 86.4576 223.373 86.5687C223.441 86.6122 223.52 86.6354 223.6 86.6354C223.681 86.6354 223.76 86.6122 223.827 86.5687C223.963 86.4649 224.07 86.3273 224.137 86.1696C224.258 85.888 224.296 85.5778 224.247 85.2752C224.175 84.9981 224.062 84.7336 223.91 84.4909Z" fill="#263238"/>
<path d="M254.127 84.9794C254.127 84.9794 254.258 84.9037 254.436 85.0551C254.489 85.1009 254.531 85.1582 254.558 85.2226C254.586 85.287 254.598 85.3567 254.595 85.4266C254.577 85.6052 254.5 85.7726 254.375 85.9013C254.113 86.1903 253.632 86.3004 253.411 86.6512C253.361 86.7429 253.334 86.8458 253.334 86.9505C253.334 87.0552 253.361 87.1582 253.411 87.2498C253.469 87.3458 253.552 87.4234 253.652 87.4734C253.752 87.5234 253.864 87.5437 253.976 87.5319C254.088 87.5225 254.194 87.4793 254.282 87.4081C254.369 87.3369 254.432 87.2409 254.464 87.1328C254.497 87.0325 254.504 86.9253 254.483 86.8216C254.463 86.7179 254.416 86.6213 254.347 86.5412C254.208 86.3804 254.04 86.2473 253.852 86.149C253.749 86.1108 253.656 86.0502 253.58 85.9717C253.504 85.8931 253.446 85.7986 253.411 85.6949C253.391 85.6056 253.391 85.5129 253.411 85.4236C253.431 85.3343 253.471 85.2507 253.528 85.1789C253.61 85.0758 253.716 84.9953 253.838 84.945C254.037 84.8762 254.154 84.89 254.161 84.9037C254.168 84.9175 254.051 84.9037 253.879 85.0276C253.779 85.0816 253.694 85.1596 253.632 85.2546C253.592 85.3123 253.566 85.378 253.555 85.4471C253.545 85.5162 253.549 85.5867 253.57 85.6536C253.638 85.9495 254.189 85.9908 254.512 86.4104C254.605 86.5185 254.669 86.6485 254.698 86.7881C254.727 86.9277 254.72 87.0724 254.677 87.2085C254.63 87.3581 254.539 87.4903 254.417 87.5883C254.294 87.6863 254.146 87.7457 253.989 87.7589C253.835 87.7755 253.679 87.7474 253.54 87.6778C253.401 87.6083 253.284 87.5004 253.205 87.3668C253.134 87.2408 253.096 87.0986 253.096 86.954C253.096 86.8093 253.134 86.6671 253.205 86.5412C253.345 86.344 253.535 86.1874 253.755 86.0871C253.925 86.0047 254.084 85.9031 254.23 85.7844C254.339 85.6877 254.412 85.5566 254.436 85.4128C254.442 85.3601 254.437 85.3067 254.422 85.2559C254.406 85.2051 254.381 85.1579 254.347 85.117C254.264 84.9794 254.127 85 254.127 84.9794Z" fill="#263238"/>
<path d="M254.031 84.1125C253.872 83.4336 253.872 82.7274 254.031 82.0485C254.189 82.7274 254.189 83.4336 254.031 84.1125Z" fill="#263238"/>
<path d="M263.958 83.3557C263.756 83.4283 263.541 83.461 263.325 83.452L262.637 83.4933C262.586 83.5106 262.531 83.5106 262.479 83.4933C262.446 83.4717 262.42 83.4402 262.405 83.4032C262.39 83.3663 262.387 83.3256 262.397 83.2869C262.42 83.2001 262.471 83.1231 262.541 83.0668L262.844 82.7503C263.05 82.5899 263.186 82.3555 263.222 82.0967C263.228 82.0036 263.203 81.9111 263.151 81.8338C263.099 81.7566 263.022 81.699 262.933 81.6701C262.793 81.6532 262.652 81.6796 262.527 81.7458C262.424 81.7871 262.369 81.8146 262.355 81.8008C262.342 81.7871 262.39 81.7389 262.479 81.6701C262.613 81.5555 262.785 81.4964 262.961 81.505C263.098 81.5326 263.221 81.6078 263.308 81.7174C263.395 81.827 263.44 81.9638 263.436 82.1036C263.41 82.416 263.261 82.7055 263.023 82.9085L262.706 83.2181C262.651 83.2663 262.61 83.3144 262.61 83.3351H262.651H263.339C263.545 83.3072 263.755 83.3142 263.958 83.3557Z" fill="#263238"/>
<path d="M230.597 83.3144C230.597 83.3144 230.597 83.0805 230.597 82.6746C230.597 82.2687 230.597 81.6701 230.563 80.9752C230.563 79.5304 230.522 77.5352 230.515 75.2511L230.625 75.368H228.471L228.588 75.2511V77.6384C228.588 78.4021 228.588 79.1314 228.588 79.8194C228.588 81.1954 228.588 82.365 228.554 83.3076L228.485 83.2388L230.054 83.2732C230.425 83.2732 230.632 83.2732 230.638 83.3076C230.457 83.3192 230.276 83.3192 230.095 83.3076L228.485 83.342H228.416V83.2732C228.416 82.3306 228.416 81.1472 228.416 79.785C228.416 79.097 228.416 78.3677 228.416 77.604V75.2167L228.533 75.0997H230.735V75.2098C230.735 77.5421 230.735 79.5717 230.68 81.0096C230.68 81.6976 230.68 82.2618 230.68 82.6884C230.67 82.899 230.642 83.1085 230.597 83.3144Z" fill="#263238"/>
<path d="M251.134 83.3144C251.126 83.2321 251.126 83.1491 251.134 83.0668C251.134 82.8879 251.134 82.6677 251.134 82.3788C251.134 81.7596 251.134 80.9202 251.1 79.8813C251.1 77.776 251.058 74.8589 251.052 71.5496L251.168 71.6597H249.008L249.125 71.5496V73.366C249.125 73.9645 249.125 74.5493 249.125 75.1204C249.125 76.2693 249.125 77.3495 249.125 78.3608C249.125 80.356 249.091 82.0485 249.084 83.2869L249.022 83.225H250.597H251.024H251.182C251.001 83.2377 250.82 83.2377 250.639 83.225L249.022 83.2594H248.96V83.1975C248.96 81.9591 248.96 80.2666 248.919 78.2714C248.919 77.26 248.919 76.2074 248.919 75.0309C248.919 74.4599 248.919 73.8751 248.919 73.2765V71.4602L249.036 71.3432H251.306V71.4602C251.306 74.8176 251.306 77.776 251.258 79.8744C251.258 80.8996 251.258 81.732 251.224 82.3444C251.224 82.6058 251.224 82.826 251.224 83.0324C251.224 83.2388 251.134 83.3213 251.134 83.3144Z" fill="#263238"/>
<path d="M235.792 83.3144C235.784 83.2137 235.784 83.1125 235.792 83.0117C235.792 82.7916 235.792 82.5095 235.792 82.1586C235.792 81.4087 235.792 80.356 235.757 79.0488C235.757 76.4138 235.757 72.7743 235.709 68.6669L235.826 68.7839H233.666C233.9 68.55 233.728 68.722 233.783 68.6738V70.9992C233.783 71.7629 233.783 72.506 233.783 73.2352C233.783 74.6869 233.783 76.056 233.783 77.3151C233.783 79.8194 233.748 81.8834 233.735 83.3144L233.68 83.2594H235.269H235.689H235.84H235.709H235.296H233.68H233.625V83.2044C233.625 81.7733 233.625 79.7093 233.583 77.205C233.583 75.946 233.583 74.5768 233.583 73.1252C233.583 72.3959 233.583 71.6528 233.583 70.8892V68.5637C233.638 68.5087 233.466 68.6738 233.7 68.4399H235.971V68.55C235.971 72.678 235.936 76.3588 235.922 79.0144C235.922 80.3079 235.922 81.3536 235.888 82.0967C235.888 82.4407 235.888 82.7159 235.888 82.9223C235.888 83.1287 235.792 83.3213 235.792 83.3144Z" fill="#263238"/>
<path d="M240.869 83.2663C240.866 83.2273 240.866 83.1882 240.869 83.1493V82.7847C240.869 82.4682 240.869 82.0279 240.869 81.4706C240.869 80.3216 240.869 78.6773 240.835 76.6546C240.835 72.5679 240.8 66.9194 240.78 60.576L240.897 60.693H238.716L238.826 60.5829V67.8551C238.826 70.153 238.826 72.3133 238.826 74.281C238.826 78.1888 238.785 81.3192 238.771 83.225L238.73 83.1837H240.319H240.883C240.883 83.1837 240.842 83.1837 240.752 83.1837H240.367H238.75H238.702V83.1355C238.702 81.1954 238.702 78.065 238.654 74.1915C238.654 72.2239 238.654 70.0635 238.654 67.7656C238.654 66.6098 238.654 65.4264 238.654 64.2087V60.4935C238.702 60.4384 238.537 60.6035 238.771 60.3696H241.041V60.4866C241.041 66.8575 241.041 72.5404 240.993 76.6477C240.993 78.6704 240.993 80.3079 240.959 81.4637C240.959 82.0141 240.959 82.4476 240.959 82.7572V83.0874C240.876 83.2388 240.876 83.2731 240.869 83.2663Z" fill="#263238"/>
<path d="M246.077 83.2663C246.077 83.2663 246.077 83.1975 246.077 83.0668C246.077 82.936 246.077 82.7296 246.077 82.482C246.077 81.966 246.077 81.216 246.077 80.2597C246.077 78.3264 246.077 75.5331 246.043 72.0863C246.043 65.2063 246.043 55.6224 245.995 44.9584L246.112 45.0754H243.951C244.178 44.8484 244.02 45.0203 244.068 44.9722V51.5564C244.068 53.7029 244.068 55.7944 244.068 57.8103C244.068 61.8488 244.068 65.5916 244.068 68.9421C244.068 75.6157 244.02 80.6863 244.006 83.2663H245.623H246.167C246.167 83.2663 246.125 83.2663 246.036 83.2663H245.644H244.006H243.972V83.225C243.972 80.645 243.938 75.5744 243.917 68.9008C243.917 65.5503 243.917 61.8076 243.917 57.769C243.917 55.7532 243.917 53.641 243.917 51.5151V44.9447C243.972 44.8896 243.8 45.0479 244.034 44.8139H246.304V44.9447C246.304 55.6431 246.304 65.2269 246.256 72.1551C246.256 75.5951 246.256 78.3471 246.222 80.301C246.222 81.2504 246.222 81.9866 246.222 82.5026C246.222 82.7434 246.222 82.9292 246.222 83.0668C246.222 83.2044 246.077 83.2732 246.077 83.2663Z" fill="#263238"/>
<path d="M15.1157 85.5367L16.9527 117.756L70.8575 114.68L15.1157 85.5367ZM24.1216 98.0376L47.3072 110.422L24.8991 111.681L24.1216 98.0376Z" fill="#BA68C8"/>
<path d="M20.4684 88.3506C20.2966 89.0605 20.0083 89.737 19.6153 90.3527C19.3252 91.0279 18.9228 91.649 18.425 92.1896C18.5935 91.4722 18.8819 90.7883 19.2782 90.1669C19.572 89.5 19.9742 88.8862 20.4684 88.3506Z" fill="#263238"/>
<path d="M28.7381 92.6231C28.5659 93.3243 28.2776 93.9917 27.885 94.5976C27.6002 95.2559 27.202 95.8591 26.7085 96.3796C26.875 95.6776 27.1612 95.0096 27.5547 94.405C27.8382 93.7444 28.2391 93.1406 28.7381 92.6231Z" fill="#263238"/>
<path d="M37.0011 96.8955C36.7612 97.5721 36.4076 98.2026 35.9553 98.76C35.6021 99.3903 35.1356 99.9501 34.5793 100.411C34.8183 99.7322 35.172 99.0992 35.6251 98.5399C35.9821 97.9141 36.4481 97.3572 37.0011 96.8955Z" fill="#263238"/>
<path d="M45.1332 101.361C44.9012 102.043 44.5468 102.677 44.0874 103.232C43.726 103.857 43.2607 104.415 42.7114 104.883C42.9434 104.201 43.2978 103.567 43.7572 103.012C44.1186 102.387 44.5839 101.829 45.1332 101.361Z" fill="#263238"/>
<path d="M53.6231 105.716C53.4218 106.428 53.1007 107.1 52.6736 107.704C52.3546 108.367 51.9267 108.971 51.4077 109.493C51.9186 108.113 52.6685 106.835 53.6231 105.716Z" fill="#263238"/>
<path d="M62.4365 110.305C62.2739 110.979 61.9894 111.618 61.5971 112.19C61.3108 112.821 60.9148 113.396 60.4275 113.889C60.5937 113.213 60.8803 112.572 61.2737 111.997C61.553 111.366 61.9473 110.792 62.4365 110.305Z" fill="#263238"/>
<path d="M23.0483 89.6991C23.1377 89.7541 22.9864 90.222 22.7043 90.7586C22.4222 91.2952 22.1195 91.6736 22.0163 91.6255C21.9131 91.5773 22.0782 91.1026 22.3603 90.5728C22.6424 90.0431 22.9589 89.6647 23.0483 89.6991Z" fill="#263238"/>
<path d="M25.7522 91.0407C25.8485 91.0888 25.6903 91.5636 25.4082 92.0933C25.1261 92.6231 24.8303 93.0152 24.7202 92.9671C24.6101 92.9189 24.789 92.4442 25.0642 91.9076C25.3394 91.3709 25.6627 90.9994 25.7522 91.0407Z" fill="#263238"/>
<path d="M31.7858 94.2399C31.8753 94.2949 31.7239 94.7628 31.4418 95.2994C31.1598 95.836 30.857 96.2213 30.7538 96.1663C30.6506 96.1112 30.8158 95.6434 31.0978 95.1136C31.3799 94.5839 31.6964 94.1917 31.7858 94.2399Z" fill="#263238"/>
<path d="M34.4968 95.5952C34.5862 95.6434 34.4349 96.1181 34.1528 96.6479C33.8707 97.1776 33.568 97.5698 33.4648 97.5216C33.3616 97.4735 33.5267 96.9987 33.8088 96.4621C34.0909 95.9255 34.4005 95.5471 34.4968 95.5952Z" fill="#263238"/>
<path d="M39.9526 98.6499C40.0489 98.6981 39.8907 99.1728 39.6086 99.7026C39.3265 100.232 39.0307 100.625 38.9206 100.576C38.8105 100.528 38.9825 100.053 39.2646 99.5168C39.5467 98.9802 39.8631 98.6087 39.9526 98.6499Z" fill="#263238"/>
<path d="M42.5395 99.9847C42.6358 100.033 42.4776 100.508 42.1955 101.037C41.9134 101.567 41.6176 101.959 41.5075 101.911C41.3974 101.863 41.5694 101.381 41.8515 100.852C42.1336 100.322 42.4501 99.9847 42.5395 99.9847Z" fill="#263238"/>
<path d="M48.1191 102.902C48.2085 102.957 48.0572 103.425 47.7751 103.961C47.493 104.498 47.1972 104.876 47.0871 104.828C46.977 104.78 47.149 104.305 47.4311 103.776C47.7132 103.246 48.0297 102.854 48.1191 102.902Z" fill="#263238"/>
<path d="M51.1189 104.491C51.2083 104.546 51.0569 105.014 50.7749 105.551C50.4928 106.087 50.1901 106.473 50.0869 106.417C49.9837 106.362 50.1488 105.895 50.4309 105.365C50.7129 104.835 51.0294 104.443 51.1189 104.491Z" fill="#263238"/>
<path d="M56.5127 107.333C56.6021 107.381 56.4507 107.855 56.1687 108.385C55.8866 108.915 55.5839 109.307 55.4807 109.259C55.3775 109.211 55.5426 108.736 55.8247 108.199C56.1067 107.663 56.4163 107.284 56.5127 107.333Z" fill="#263238"/>
<path d="M59.6225 108.929C59.712 108.984 59.5606 109.458 59.2785 109.988C58.9964 110.518 58.6937 110.91 58.5905 110.855C58.4873 110.8 58.6524 110.332 58.9345 109.802C59.2166 109.273 59.5331 108.881 59.6225 108.929Z" fill="#263238"/>
<path d="M107.308 40.7066C107.308 40.7066 107.308 40.6653 107.308 40.5896C107.308 40.5139 107.308 40.3901 107.308 40.2456C107.308 39.9429 107.308 39.5026 107.308 38.9315C107.308 37.7757 107.308 36.097 107.308 33.9642C107.308 29.6986 107.273 23.6442 107.253 16.3239L107.356 16.4202H82.9732L83.0833 16.3032C83.0833 25.2472 83.0833 33.5995 83.0833 40.6859L82.9869 40.5828L100.627 40.6378H105.595H105.636H100.696L82.9869 40.6859H82.8149V40.5828C82.8149 33.4963 82.8149 25.1303 82.8149 16.2V16.0831H82.9319H107.315H107.411V16.1863C107.411 23.5066 107.377 29.6091 107.363 33.8954C107.363 36.0144 107.363 37.6863 107.363 38.8352C107.363 39.3994 107.363 39.8259 107.363 40.1287V40.569L107.308 40.7066Z" fill="#BA68C8"/>
<path d="M107.308 40.7066C107.367 40.6588 107.429 40.6151 107.494 40.5759L108.051 40.2181L110.211 38.8421L118.151 33.9367L118.109 34.0124C118.109 27.6484 118.109 19.2203 118.109 9.99427L118.219 10.1112H118.158H94.1188H94.1601L85.9522 14.6727L83.7094 15.9248L83.1246 16.2413L82.925 16.3445C82.9848 16.3001 83.0468 16.2588 83.1108 16.2207L83.6887 15.8767L85.9041 14.5901L94.05 9.91171H118.089H118.268V10.0287C118.268 19.2548 118.268 27.6828 118.268 34.0468V34.0949H118.226L110.246 38.9728L108.065 40.2938L107.494 40.6309L107.308 40.7066Z" fill="#BA68C8"/>
<path d="M118.192 9.96675C118.226 10.0218 115.818 11.4872 112.812 13.2416C109.805 14.996 107.308 16.3789 107.308 16.3239C107.308 16.2688 109.681 14.8034 112.695 13.0421C115.708 11.2808 118.164 9.91171 118.192 9.96675Z" fill="#BA68C8"/>
<path d="M84.0809 39.7021C84.0809 39.7572 83.8745 39.9567 83.5581 40.1355C83.2416 40.3144 82.9526 40.4245 82.9251 40.3695C82.8976 40.3144 83.1246 40.1218 83.4411 39.936C83.7576 39.7503 84.0465 39.6471 84.0809 39.7021Z" fill="#BA68C8"/>
<path d="M86.3925 38.3743C86.4269 38.4293 86.193 38.6288 85.8696 38.8077C85.5462 38.9866 85.2642 39.0967 85.2366 39.0416C85.2091 38.9866 85.4361 38.794 85.7595 38.6082C86.0829 38.4224 86.3581 38.3192 86.3925 38.3743Z" fill="#BA68C8"/>
<path d="M88.7041 37.0464C88.7385 37.1015 88.5046 37.301 88.1881 37.4799C87.8716 37.6588 87.5827 37.7688 87.5483 37.7138C87.5139 37.6588 87.7478 37.4661 88.0712 37.2804C88.3945 37.0946 88.6766 36.9914 88.7041 37.0464Z" fill="#BA68C8"/>
<path d="M91.0227 35.7186C91.0227 35.7736 90.8163 35.9663 90.4998 36.152C90.1833 36.3378 89.8944 36.441 89.86 36.386C89.8256 36.3309 90.0664 36.1383 90.3828 35.9525C90.6993 35.7668 90.9883 35.6636 91.0227 35.7186Z" fill="#BA68C8"/>
<path d="M93.3344 34.3908C93.3344 34.4458 93.1348 34.6384 92.8115 34.8242C92.4881 35.01 92.206 35.1132 92.1785 35.0581C92.151 35.0031 92.378 34.8104 92.6945 34.6247C93.011 34.4389 93.3 34.3357 93.3344 34.3908Z" fill="#BA68C8"/>
<path d="M93.9192 32.0584C93.9812 32.0584 94.0293 32.3543 94.0293 32.7464C94.0293 33.1386 93.9743 33.4344 93.9055 33.4344C93.8367 33.4344 93.7954 33.1386 93.7954 32.7464C93.7954 32.3543 93.8573 32.0516 93.9192 32.0584Z" fill="#BA68C8"/>
<path d="M93.94 29.389C94.0019 29.389 94.057 29.6848 94.0501 30.077C94.0432 30.4692 93.995 30.765 93.9331 30.765C93.8712 30.765 93.8162 30.4623 93.8162 30.077C93.8162 29.6917 93.8781 29.389 93.94 29.389Z" fill="#BA68C8"/>
<path d="M93.9605 26.7195C94.0224 26.7195 94.0775 27.0223 94.0706 27.4075C94.0637 27.7928 94.0155 28.0955 93.9536 28.0955C93.8917 28.0955 93.8367 27.7928 93.8367 27.4075C93.8367 27.0223 93.8986 26.7195 93.9605 26.7195Z" fill="#BA68C8"/>
<path d="M93.9811 24.0501C94.043 24.0501 94.098 24.3528 94.0911 24.7381C94.0843 25.1234 94.0361 25.4261 93.9742 25.4261C93.9123 25.4261 93.8572 25.1303 93.8641 24.7381C93.871 24.3459 93.9191 24.0501 93.9811 24.0501Z" fill="#BA68C8"/>
<path d="M94.0018 21.3876C94.0637 21.3876 94.1188 21.6834 94.1119 22.0756C94.105 22.4677 94.0569 22.7636 93.9949 22.7636C93.933 22.7636 93.878 22.4677 93.8849 22.0756C93.8917 21.6834 93.9399 21.3876 94.0018 21.3876Z" fill="#BA68C8"/>
<path d="M94.0223 18.7181C94.0911 18.7181 94.1393 19.0139 94.1324 19.4061C94.1255 19.7983 94.0774 20.0941 94.0155 20.0941C93.9535 20.0941 93.8985 19.7914 93.9054 19.4061C93.9122 19.0208 93.9604 18.7181 94.0223 18.7181Z" fill="#BA68C8"/>
<path d="M94.0431 16.0487C94.1119 16.0487 94.16 16.3514 94.1532 16.7367C94.1463 17.122 94.0981 17.4247 94.0362 17.4247C93.9743 17.4247 93.9192 17.122 93.9261 16.7367C93.933 16.3514 93.9812 16.0487 94.0431 16.0487Z" fill="#BA68C8"/>
<path d="M94.0638 13.3792C94.1326 13.3792 94.1808 13.682 94.1739 14.0672C94.167 14.4525 94.1189 14.7552 94.057 14.7552C93.995 14.7552 93.94 14.4594 93.9469 14.0672C93.9538 13.6751 94.0019 13.3792 94.0638 13.3792Z" fill="#BA68C8"/>
<path d="M94.0843 10.7167C94.1531 10.7167 94.2013 11.0125 94.1944 11.4047C94.1875 11.7968 94.1394 12.0927 94.0775 12.0927C94.0155 12.0927 93.9605 11.7968 93.9674 11.4047C93.9743 11.0125 94.0224 10.7167 94.0843 10.7167Z" fill="#BA68C8"/>
<path d="M116.864 33.9917C116.864 33.9367 117.16 33.8885 117.552 33.8885C117.944 33.8885 118.24 33.9367 118.24 33.9917C118.24 34.0468 117.944 34.1018 117.552 34.1018C117.16 34.1018 116.864 34.0536 116.864 33.9917Z" fill="#BA68C8"/>
<path d="M114.195 33.9917C114.195 33.9367 114.49 33.8885 114.883 33.8885C115.275 33.8885 115.571 33.9367 115.571 33.9917C115.571 34.0468 115.268 34.1018 114.883 34.1018C114.497 34.1018 114.195 34.0536 114.195 33.9917Z" fill="#BA68C8"/>
<path d="M111.525 33.9917C111.525 33.9367 111.821 33.8885 112.213 33.8885C112.605 33.8885 112.901 33.9367 112.901 33.9917C112.901 34.0468 112.605 34.1018 112.213 34.1018C111.821 34.1018 111.525 34.0536 111.525 33.9917Z" fill="#BA68C8"/>
<path d="M108.856 33.9917C108.856 33.9367 109.158 33.8885 109.544 33.8885C109.929 33.8885 110.232 33.9367 110.232 33.9917C110.232 34.0468 109.936 34.1018 109.544 34.1018C109.152 34.1018 108.856 34.0536 108.856 33.9917Z" fill="#BA68C8"/>
<path d="M106.207 33.9917C106.207 33.9367 106.503 33.8885 106.895 33.8885C107.287 33.8885 107.583 33.9367 107.583 33.9917C107.583 34.0468 107.287 34.1018 106.895 34.1018C106.503 34.1018 106.207 34.0536 106.207 33.9917Z" fill="#BA68C8"/>
<path d="M103.524 33.9917C103.524 33.9367 103.82 33.8885 104.212 33.8885C104.604 33.8885 104.9 33.9367 104.9 33.9917C104.9 34.0468 104.597 34.1018 104.212 34.1018C103.826 34.1018 103.524 34.0536 103.524 33.9917Z" fill="#BA68C8"/>
<path d="M100.854 33.9917C100.854 33.9367 101.15 33.8885 101.542 33.8885C101.934 33.8885 102.23 33.9367 102.23 33.9917C102.23 34.0468 101.934 34.1018 101.542 34.1018C101.15 34.1018 100.854 34.0536 100.854 33.9917Z" fill="#BA68C8"/>
<path d="M98.1848 33.9917C98.1848 33.9367 98.4875 33.8885 98.8728 33.8885C99.2581 33.8885 99.5608 33.9367 99.5608 33.9917C99.5608 34.0468 99.265 34.1018 98.8728 34.1018C98.4807 34.1018 98.1848 34.0536 98.1848 33.9917Z" fill="#BA68C8"/>
<path d="M95.5222 33.9917C95.5222 33.9367 95.8181 33.8885 96.2102 33.8885C96.6024 33.8885 96.8982 33.9367 96.8982 33.9917C96.8982 34.0468 96.6024 34.1018 96.2102 34.1018C95.8181 34.1018 95.5222 34.0536 95.5222 33.9917Z" fill="#BA68C8"/>
<path d="M93.9055 33.9917C93.9055 33.9367 93.9674 33.8885 94.0431 33.8885C94.1188 33.8885 94.1876 33.9367 94.1876 33.9917C94.1876 34.0468 94.1257 34.1018 94.0431 34.1018C94.0268 34.1037 94.0103 34.1024 93.9946 34.0979C93.9788 34.0933 93.9641 34.0857 93.9513 34.0755C93.9385 34.0653 93.9279 34.0526 93.92 34.0382C93.9122 34.0238 93.9072 34.008 93.9055 33.9917Z" fill="#BA68C8"/>
<path d="M121.143 25.8664C121.347 25.8862 121.552 25.8862 121.756 25.8664C122.023 25.8073 122.275 25.6913 122.493 25.5263C122.711 25.3612 122.892 25.1511 123.022 24.9101C123.194 24.5455 123.277 24.1455 123.265 23.7426C123.253 23.3397 123.146 22.9453 122.953 22.5916C122.908 22.4943 122.841 22.4088 122.758 22.3419C122.674 22.275 122.576 22.2286 122.471 22.2063C122.251 22.1787 122.029 22.238 121.852 22.3714C121.485 22.7277 121.217 23.1735 121.075 23.6648C120.882 24.1985 120.766 24.7567 120.731 25.3229H120.504C120.504 23.5548 120.469 22.0136 120.469 20.9128C120.469 20.3968 120.469 19.9634 120.469 19.6194C120.45 19.464 120.45 19.3069 120.469 19.1516C120.501 19.3055 120.517 19.4622 120.517 19.6194C120.517 19.9634 120.517 20.3968 120.572 20.9128C120.614 22.0136 120.655 23.5548 120.689 25.3229H120.462C120.499 24.7355 120.62 24.1563 120.82 23.6029C120.915 23.3442 121.025 23.0914 121.15 22.8461C121.275 22.5967 121.454 22.3781 121.673 22.2063C121.786 22.1206 121.914 22.0583 122.051 22.0228C122.188 21.9874 122.331 21.9796 122.471 21.9999C122.604 22.0321 122.729 22.0931 122.836 22.1787C122.943 22.2643 123.03 22.3724 123.09 22.4952C123.294 22.8824 123.401 23.3133 123.401 23.7508C123.401 24.1883 123.294 24.6192 123.09 25.0064C122.948 25.2595 122.751 25.477 122.512 25.6427C122.274 25.8083 122.001 25.9177 121.714 25.9628C121.56 25.9882 121.402 25.9882 121.247 25.9628C121.207 25.9366 121.172 25.904 121.143 25.8664Z" fill="#BA68C8"/>
<path d="M53.5198 140.047C53.5198 140.047 53.6161 140.047 53.8018 140.129C53.9876 140.212 54.2628 140.274 54.6137 140.418C55.6413 140.824 56.6236 141.336 57.5446 141.946C59.0118 142.911 60.3129 144.108 61.3974 145.489C62.8529 147.315 63.8401 149.469 64.2732 151.764C64.7648 154.56 64.3928 157.44 63.2068 160.02C62.554 161.456 61.6447 162.762 60.5236 163.872C59.9368 164.453 59.2938 164.974 58.6041 165.427C58.2394 165.634 57.9161 165.854 57.5033 166.046C57.0905 166.239 56.7465 166.425 56.3406 166.569C53.1345 167.842 49.4606 167.897 45.7729 167.546C43.929 167.367 42.0714 167.099 40.1794 166.803C38.2579 166.528 36.3635 166.089 34.5172 165.489C32.6503 164.896 30.9246 163.927 29.4466 162.641C28.7383 161.992 28.1142 161.257 27.589 160.453C27.0911 159.648 26.6915 158.787 26.3988 157.887C25.8445 156.134 25.6594 154.286 25.8553 152.458C26.0489 150.714 26.5571 149.02 27.3551 147.457C28.9265 144.601 31.2989 142.267 34.1801 140.742C36.6626 139.401 39.3742 138.538 42.1746 138.196C44.4774 137.923 46.8034 137.907 49.1097 138.148C50.8466 138.332 52.5716 138.615 54.2766 138.994C55.6526 139.311 56.7534 139.6 57.4826 139.799L58.3082 140.04L58.5903 140.136L58.3014 140.068L57.4689 139.854C56.7396 139.669 55.6594 139.393 54.2559 139.097C52.5499 138.737 50.8249 138.472 49.089 138.306C46.7999 138.076 44.492 138.103 42.209 138.389C39.4387 138.743 36.7582 139.609 34.3039 140.941C31.4706 142.453 29.1394 144.758 27.5959 147.574C26.8165 149.114 26.3246 150.783 26.1442 152.5C25.9561 154.291 26.1388 156.101 26.6809 157.818C26.9624 158.697 27.3506 159.538 27.8367 160.322C28.3451 161.107 28.9508 161.823 29.6393 162.455C31.0918 163.712 32.7839 164.663 34.6135 165.248C36.4489 165.842 38.3318 166.277 40.2414 166.549C42.1196 166.845 43.9841 167.113 45.8142 167.292C49.4606 167.643 53.1138 167.594 56.2649 166.342C59.2697 165.182 61.6951 162.883 63.0142 159.944C64.1891 157.405 64.5681 154.57 64.1012 151.812C63.6758 149.551 62.7104 147.427 61.2873 145.62C60.2217 144.246 58.9444 143.05 57.5033 142.077C56.5902 141.462 55.6203 140.937 54.6068 140.508C54.2559 140.363 53.9876 140.274 53.8018 140.198L53.5198 140.047Z" fill="#263238"/>
<path d="M35.1503 157.825C34.9682 157.871 34.781 157.895 34.593 157.894L33.0588 157.969H32.5497C32.3556 157.996 32.1589 157.996 31.9649 157.969C31.8422 157.931 31.7388 157.847 31.6759 157.735C31.6239 157.633 31.5935 157.52 31.5865 157.405L31.5452 156.779C31.497 155.912 31.442 154.977 31.387 154.027C31.3319 153.078 31.27 152.108 31.2631 151.234C31.2515 150.805 31.3511 150.381 31.5521 150.002C31.751 149.689 32.0452 149.448 32.3914 149.314C32.888 149.141 33.4171 149.083 33.9394 149.142C34.1295 149.147 34.3176 149.182 34.4967 149.245C34.309 149.262 34.1202 149.262 33.9326 149.245C33.4327 149.224 32.9338 149.306 32.4671 149.486C32.1725 149.623 31.9309 149.853 31.7791 150.14C31.607 150.485 31.5243 150.869 31.5383 151.254C31.5383 152.094 31.6415 153.05 31.6828 154.006C31.7241 154.963 31.7791 155.926 31.8273 156.758C31.8686 157.164 31.7791 157.673 32.0612 157.742C32.2323 157.767 32.4061 157.767 32.5772 157.742H34.6412C34.8137 157.748 34.9848 157.776 35.1503 157.825Z" fill="#263238"/>
<path d="M34.3797 153.318C33.9166 153.459 33.4317 153.515 32.9487 153.484C32.4667 153.536 31.9792 153.498 31.5107 153.373C31.9731 153.229 32.4586 153.173 32.9418 153.208C33.4238 153.156 33.9114 153.193 34.3797 153.318Z" fill="#263238"/>
<path d="M41.535 152.039C40.8127 152.14 40.0828 152.177 39.354 152.149C38.6304 152.206 37.9035 152.206 37.1799 152.149C37.8802 151.928 38.6132 151.828 39.3471 151.853C40.0817 151.795 40.8207 151.858 41.535 152.039Z" fill="#263238"/>
<path d="M41.9614 155.327C41.2535 155.489 40.5247 155.541 39.8011 155.479C39.0789 155.508 38.3567 155.422 37.6614 155.224C38.3753 155.156 39.0941 155.156 39.8079 155.224C40.5274 155.194 41.2482 155.228 41.9614 155.327Z" fill="#263238"/>
<path d="M53.5268 157.302C53.5268 157.302 53.5268 157.006 53.5268 156.463C53.4937 155.695 53.3548 154.936 53.114 154.206C53.0038 153.694 52.7223 153.236 52.3159 152.906C52.1997 152.84 52.0669 152.81 51.9338 152.818C51.8007 152.827 51.6729 152.874 51.566 152.954C51.3232 153.134 51.1274 153.37 50.995 153.642C50.4445 154.995 50.2092 156.456 50.307 157.914H50.0386C50.1172 156.86 50.1034 155.801 49.9974 154.749C49.9594 154.322 49.8997 153.898 49.8185 153.477C49.7504 153.088 49.5454 152.737 49.2406 152.486C49.0942 152.381 48.9186 152.324 48.7383 152.324C48.5581 152.324 48.3824 152.381 48.2361 152.486C47.9272 152.689 47.7023 152.997 47.6031 153.353C47.5045 153.711 47.44 154.077 47.4105 154.447C47.3692 154.811 47.3348 155.169 47.321 155.52C47.2832 156.173 47.2832 156.828 47.321 157.481H47.1078C47.0527 155.933 47.0046 154.667 46.9702 153.738C46.9702 153.325 46.9702 152.988 46.9702 152.72C46.9553 152.601 46.9553 152.481 46.9702 152.362C46.9976 152.48 47.0137 152.599 47.0183 152.72L47.1009 153.738C47.1559 154.66 47.2385 155.926 47.3348 157.467H47.1215C47.0865 156.807 47.0865 156.146 47.1215 155.486C47.1215 155.135 47.1628 154.798 47.2041 154.399C47.2321 154.012 47.2989 153.63 47.4036 153.257C47.5166 152.841 47.7755 152.479 48.1329 152.238C48.3386 152.109 48.5777 152.042 48.8209 152.046C49.0685 152.047 49.3093 152.126 49.5089 152.273C49.8687 152.561 50.1129 152.968 50.1969 153.422C50.2846 153.854 50.3489 154.29 50.3895 154.729C50.4819 155.798 50.4819 156.873 50.3895 157.942H50.1212C50.0303 156.446 50.2894 154.951 50.878 153.573C51.0345 153.256 51.2718 152.985 51.566 152.789C51.7069 152.687 51.8741 152.629 52.0474 152.621C52.2207 152.612 52.3928 152.654 52.543 152.741C52.9875 153.1 53.2918 153.604 53.403 154.165C53.6302 154.914 53.7461 155.693 53.747 156.476C53.747 156.752 53.747 156.965 53.7126 157.102C53.6617 157.178 53.599 157.246 53.5268 157.302Z" fill="#263238"/>
<path d="M59.5538 156.869C59.5538 156.869 59.4574 156.985 59.2235 157.102C58.8906 157.264 58.5271 157.353 58.1571 157.364C57.5982 157.381 57.0469 157.23 56.5747 156.93C55.9958 156.547 55.5833 155.959 55.42 155.284C55.2566 154.609 55.3546 153.897 55.6941 153.291C55.979 152.81 56.4005 152.424 56.905 152.183C57.238 152.023 57.6017 151.936 57.9714 151.929C58.1068 151.918 58.2428 151.937 58.3704 151.984C57.8931 152.023 57.4268 152.149 56.9944 152.355C56.545 152.602 56.1732 152.969 55.9211 153.415C55.6327 153.97 55.5547 154.611 55.7013 155.219C55.848 155.827 56.2095 156.361 56.7192 156.724C57.1486 157.007 57.6497 157.162 58.164 157.171C58.6422 157.159 59.1139 157.057 59.5538 156.869Z" fill="#263238"/>
<path d="M61.1772 149.073C60.1402 149.136 59.1135 149.314 58.1156 149.603L57.6546 149.755L57.9986 149.404C58.6612 148.799 59.2355 148.104 59.7049 147.34C60.0717 146.701 60.1985 145.952 60.0626 145.228C59.987 144.904 59.7943 144.65 59.5329 144.643C59.2608 144.648 58.994 144.718 58.7554 144.849C58.3906 145.037 58.0676 145.297 57.806 145.613C57.6202 145.84 57.5446 145.991 57.5239 145.977C57.5521 145.82 57.6209 145.673 57.7234 145.551C57.9607 145.188 58.2846 144.89 58.666 144.684C58.9308 144.519 59.2346 144.426 59.5466 144.416C59.6425 144.419 59.7367 144.442 59.8232 144.483C59.9097 144.524 59.9866 144.584 60.0489 144.657C60.1722 144.801 60.2595 144.974 60.3034 145.159C60.4735 145.947 60.3461 146.77 59.9457 147.47C59.4666 148.268 58.8653 148.985 58.1638 149.596L58.0468 149.39C58.7795 149.17 59.5386 149.049 60.3034 149.032C60.5948 148.994 60.8907 149.008 61.1772 149.073Z" fill="#263238"/>
<path d="M107.253 140.934L121.914 138.107L150.039 144.56L164.295 147.532L164.501 167.01L132.702 172.865L111.243 166.507L103.132 154.571L107.253 140.934Z" fill="#FFBE9D"/>
<path d="M96.8364 142.875L110.672 139.613C110.672 139.613 120.455 169.885 144.597 168.558C164.274 167.491 164.295 147.532 164.295 147.532L178.681 150.071C178.681 150.071 184.715 186.597 178.103 212.218C172.599 233.546 167.714 262.772 167.714 262.772H72.144L96.8364 142.875Z" fill="#BA68C8"/>
<path d="M237.03 236.463C237.03 236.463 197.614 167.409 190.521 158.547C182.754 148.846 176.555 149.968 176.555 149.968L172.385 196.484L205.898 244.031L213.886 246.914L237.03 236.463Z" fill="#BA68C8"/>
<path d="M98.4875 142.489C98.4875 142.489 76.0862 144.278 68.0504 181.017C64.4177 197.619 59.7944 217.075 58.5009 230.147C57.5377 239.635 63.3926 249.501 72.8526 250.712L84.7275 252.913C87.8647 253.496 91.1058 252.853 93.7834 251.117C96.4609 249.382 98.371 246.686 99.1204 243.584L103.131 226.976L92.4468 223.384L94.9168 173.91L98.4875 142.489Z" fill="#BA68C8"/>
<path d="M180.511 175.747C180.563 175.913 180.598 176.083 180.614 176.256C180.676 176.628 180.745 177.123 180.841 177.736C180.889 178.059 180.937 178.424 180.999 178.809C181.061 179.194 181.082 179.628 181.123 180.089C181.219 181.004 181.329 182.049 181.378 183.212C181.544 185.931 181.562 188.657 181.433 191.379C181.272 194.709 180.941 198.03 180.442 201.327C179.926 204.836 179.279 208.152 178.626 211.152C177.972 214.151 177.318 216.841 176.761 219.098C176.204 221.355 175.715 223.164 175.385 224.416C175.22 225.015 175.089 225.497 174.986 225.854C174.945 226.023 174.892 226.188 174.828 226.35C174.842 226.178 174.872 226.007 174.917 225.841C175 225.469 175.117 224.987 175.254 224.382L176.52 219.009C177.05 216.745 177.683 214.055 178.309 211.055C178.935 208.056 179.582 204.746 180.098 201.245C180.614 197.743 180.965 194.365 181.109 191.33C181.254 188.296 181.268 185.51 181.109 183.198C181.109 182.042 180.985 180.997 180.91 180.075C180.875 179.621 180.841 179.194 180.813 178.795C180.786 178.396 180.724 178.052 180.69 177.722C180.621 177.109 180.573 176.614 180.531 176.243C180.514 176.078 180.507 175.913 180.511 175.747Z" fill="#263238"/>
<path d="M104.177 228.751C104.13 228.653 104.091 228.552 104.06 228.448C103.991 228.221 103.895 227.932 103.778 227.561L103.338 226.136C103.214 225.488 102.941 224.878 102.54 224.354C101.951 223.789 101.247 223.358 100.476 223.089C99.5694 222.746 98.6347 222.483 97.6825 222.304C95.4123 221.883 93.111 221.653 90.8025 221.616H90.6167V221.437L92.6394 208.248C93.9397 199.944 95.1231 192.424 95.9831 186.92C96.4303 184.223 96.7881 182.029 97.0426 180.474C97.1665 179.738 97.2697 179.153 97.3453 178.719C97.3453 178.541 97.4073 178.389 97.4348 178.265C97.4397 178.213 97.4536 178.162 97.4761 178.114C97.4866 178.166 97.4866 178.22 97.4761 178.272C97.4761 178.396 97.4761 178.547 97.421 178.733C97.366 179.167 97.2834 179.751 97.1871 180.494C96.9601 182.056 96.6367 184.258 96.2445 186.962C95.4052 192.466 94.2631 199.972 92.9972 208.29C92.2541 213.037 91.5593 217.529 90.9332 221.472L90.7749 221.286C93.1114 221.346 95.4385 221.606 97.7306 222.063C98.6961 222.256 99.6424 222.535 100.558 222.896C101.361 223.19 102.087 223.66 102.684 224.272C102.93 224.548 103.113 224.874 103.221 225.228L103.475 226.143C103.634 226.701 103.764 227.182 103.874 227.581C103.985 227.98 104.053 228.269 104.108 228.482C104.14 228.57 104.163 228.659 104.177 228.751Z" fill="#263238"/>
<path d="M73.3206 234.365C73.3426 234.051 73.4026 233.742 73.4994 233.443C73.7158 232.614 74.0059 231.806 74.3663 231.028C75.5396 228.43 77.3686 226.181 79.6737 224.503C81.9788 222.825 84.6807 221.776 87.514 221.458C88.363 221.354 89.2195 221.327 90.0734 221.375C90.3887 221.379 90.7025 221.418 91.009 221.492C89.8593 221.499 88.7108 221.57 87.569 221.706C84.8001 222.087 82.1685 223.148 79.9083 224.792C77.6481 226.437 75.8294 228.614 74.614 231.131C74.1255 232.185 73.6937 233.265 73.3206 234.365Z" fill="#263238"/>
<path d="M78.501 216.078C78.6762 216.033 78.8573 216.017 79.0376 216.03C79.5317 216.02 80.0258 216.043 80.5168 216.098C82.1413 216.262 83.7335 216.661 85.2434 217.282C86.7529 217.907 88.166 218.743 89.4402 219.765C89.8264 220.071 90.1919 220.402 90.5341 220.756C90.7749 221.011 90.9056 221.155 90.885 221.176C90.8643 221.196 90.2795 220.694 89.2888 219.965C86.6908 218.061 83.6682 216.819 80.4824 216.346C79.2647 216.167 78.501 216.14 78.501 216.078Z" fill="#263238"/>
<path d="M101.687 168.558C101.642 168.232 101.626 167.903 101.638 167.574C101.638 166.941 101.597 166.033 101.515 164.911C101.308 161.985 100.806 159.088 100.015 156.263C99.2128 153.443 98.1319 150.709 96.7881 148.103C96.2652 147.106 95.8249 146.308 95.5015 145.771C95.3202 145.497 95.1637 145.206 95.0337 144.904C95.2533 145.149 95.4491 145.414 95.6185 145.695C95.9831 146.218 96.4579 146.996 96.9945 147.986C99.8579 153.183 101.482 158.97 101.742 164.897C101.79 166.026 101.783 166.961 101.742 167.574C101.756 167.903 101.737 168.232 101.687 168.558Z" fill="#263238"/>
<g opacity="0.3">
<path d="M179.493 206.563C185.203 196.883 185.327 184.306 180.339 174.227C181.943 184.965 181.598 195.905 179.321 206.521" fill="black"/>
</g>
<g opacity="0.3">
<path d="M128.649 217.509C124.315 218.782 118.329 219.091 114.084 217.509C117.394 222.208 123.772 223.907 129.303 222.38C134.835 220.852 139.94 215.314 140.366 209.583C137.69 213.202 132.991 216.257 128.649 217.509Z" fill="black"/>
</g>
<path d="M144.597 201.877C144.577 202.009 144.543 202.139 144.494 202.263C144.411 202.51 144.315 202.889 144.123 203.343C143.621 204.658 142.997 205.922 142.258 207.12C141.169 208.906 139.853 210.543 138.343 211.991C134.639 215.597 129.858 217.892 124.728 218.527C122.654 218.796 120.554 218.796 118.481 218.527C117.08 218.353 115.698 218.051 114.353 217.626C113.871 217.481 113.52 217.323 113.273 217.234C113.147 217.191 113.025 217.138 112.908 217.075C113.408 217.188 113.901 217.326 114.387 217.488C120.212 219.108 126.425 218.593 131.904 216.036C137.328 213.37 141.613 208.843 143.978 203.281C144.377 202.387 144.563 201.864 144.597 201.877Z" fill="#263238"/>
<path d="M96.2722 250.044C96.2722 250.044 96.2241 250.12 96.1002 250.23C95.927 250.402 95.7407 250.561 95.5429 250.705C94.8232 251.242 94.0249 251.664 93.1762 251.957C91.9143 252.377 90.5977 252.608 89.2684 252.645C87.661 252.696 86.052 252.639 84.4524 252.473C81.0124 252.177 77.9577 251.675 75.7492 251.283C74.6415 251.083 73.7471 250.911 73.1348 250.781C72.8087 250.736 72.4881 250.658 72.1785 250.547C72.5062 250.552 72.833 250.584 73.1554 250.643L75.7905 251.028C78.0058 251.365 81.0743 251.819 84.4868 252.115C86.0865 252.281 87.6949 252.347 89.3028 252.315C90.605 252.287 91.8971 252.079 93.1418 251.696C94.2622 251.305 95.3174 250.749 96.2722 250.044Z" fill="#263238"/>
<path d="M173.975 69.0247L176.803 66.2727C180.566 67.9101 182.307 72.2789 182.946 76.3381C183.586 80.3973 183.49 84.6629 185.217 88.3919C186.538 91.2608 188.939 93.8959 188.657 97.0675C188.389 100.06 185.678 102.482 185.664 105.489C185.664 108.385 188.072 110.607 189.476 113.139C192.317 118.265 194.161 139.235 192.675 144.911C180.174 143.831 158.034 142.496 145.526 139.62C148.822 118.072 162.699 87.6626 173.975 69.0247Z" fill="#263238"/>
<path d="M179.568 88.2336C180.435 73.5861 169.799 60.1839 154.972 58.4157C139.238 56.5444 125.32 67.8138 124.012 83.1424L120.325 145.021C120.257 146.217 120.591 147.401 121.274 148.385C124.907 153.697 131.484 157.852 137.366 158.671C143.056 159.462 148.828 157.983 153.672 155.286C154.475 154.832 155.146 154.175 155.615 153.38C156.085 152.586 156.338 151.682 156.348 150.759L156.603 136.91C156.602 136.898 156.603 136.886 156.608 136.874C156.612 136.863 156.618 136.853 156.627 136.844C156.635 136.836 156.646 136.829 156.657 136.825C156.668 136.821 156.68 136.819 156.692 136.82C157.988 136.918 159.291 136.881 160.58 136.71C164.24 135.816 173.576 132.224 176.713 118.519C177.759 113.979 178.805 101.079 179.568 88.2336Z" fill="#FFBE9D"/>
<path d="M159.217 108.468C159.217 108.33 160.752 108.179 163.235 108.041C163.861 108.041 164.46 107.938 164.611 107.525C164.704 106.894 164.598 106.25 164.309 105.681L162.767 100.865C160.635 94.0404 159.135 88.4469 159.41 88.3712C159.685 88.2956 161.646 93.7514 163.779 100.576C164.288 102.262 164.776 103.865 165.244 105.392C165.437 106.08 165.788 106.92 165.409 107.821C165.304 108.031 165.152 108.214 164.965 108.356C164.777 108.498 164.56 108.595 164.329 108.64C163.978 108.71 163.62 108.735 163.263 108.715C160.758 108.702 159.224 108.605 159.217 108.468Z" fill="#263238"/>
<path d="M175.523 93.4143C175.255 93.7101 173.631 92.3479 171.305 92.2791C168.98 92.2103 167.246 93.428 166.999 93.1116C166.875 92.9671 167.157 92.4236 167.914 91.8594C168.913 91.1408 170.123 90.7731 171.354 90.8136C172.583 90.8561 173.762 91.309 174.704 92.1002C175.427 92.7194 175.695 93.2836 175.523 93.4143Z" fill="#263238"/>
<path d="M151.897 94.0059C151.58 94.3018 149.888 92.7675 147.349 92.5474C144.81 92.3272 142.836 93.4899 142.581 93.1459C142.458 92.9877 142.802 92.458 143.662 91.8938C144.814 91.211 146.154 90.9122 147.487 91.0407C148.821 91.159 150.082 91.707 151.078 92.6024C151.828 93.2698 152.048 93.8752 151.897 94.0059Z" fill="#263238"/>
<path d="M156.603 136.813C156.603 136.813 147.122 136.917 135.784 129.128C135.784 129.128 138.715 141.636 156.527 141.244L156.603 136.813Z" fill="#EB996E"/>
<path d="M157.807 114.178C157.375 113.569 156.797 113.078 156.127 112.75C155.456 112.422 154.714 112.267 153.968 112.3C153.429 112.308 152.898 112.424 152.405 112.641C151.912 112.859 151.468 113.173 151.099 113.566C150.747 113.942 150.521 114.419 150.453 114.929C150.385 115.44 150.479 115.959 150.721 116.414C151.319 117.37 152.681 117.68 153.872 117.432C155.05 117.11 156.154 116.558 157.119 115.809C157.406 115.625 157.657 115.392 157.862 115.121C157.959 114.994 158.016 114.841 158.025 114.682C158.035 114.523 157.997 114.364 157.917 114.226" fill="#EB996E"/>
<path d="M151.924 109.617C152.324 109.617 152.165 112.231 154.312 114.24C156.458 116.249 159.3 116.153 159.3 116.517C159.3 116.689 158.612 116.985 157.442 116.93C155.892 116.844 154.419 116.224 153.273 115.176C152.182 114.178 151.525 112.792 151.443 111.316C151.408 110.222 151.746 109.617 151.924 109.617Z" fill="#263238"/>
<path d="M152.303 84.4152C152.014 85.0482 149.599 84.5597 146.716 84.6767C143.834 84.7936 141.46 85.3647 141.116 84.7799C140.971 84.484 141.412 83.9061 142.396 83.3419C143.704 82.6605 145.149 82.2819 146.623 82.2343C148.097 82.1867 149.564 82.4712 150.913 83.0668C151.911 83.5621 152.399 84.1125 152.303 84.4152Z" fill="#263238"/>
<path d="M176.025 84.9312C175.53 85.4816 173.569 84.9312 171.209 84.9312C168.849 84.9312 166.868 85.3234 166.393 84.7523C166.187 84.4771 166.496 83.9267 167.363 83.3763C168.563 82.7474 169.903 82.4327 171.258 82.4615C172.613 82.4904 173.938 82.8619 175.11 83.5415C175.963 84.0988 176.245 84.6629 176.025 84.9312Z" fill="#263238"/>
<path d="M157.119 55.3197C155.839 53.1456 153.466 52.1549 150.81 51.7559C139.967 50.1115 127.872 56.6407 121.797 65.7635C115.722 74.8864 115.399 88.5019 119.843 98.5192L126.606 94.2949C140.18 88.6946 149.764 75.6157 158.495 62.1034C159.713 60.2664 158.254 57.2117 157.119 55.3197Z" fill="#263238"/>
<path d="M173.824 61.2847C169.29 56.1247 165.994 50.9647 156.582 54.5698C155.206 57.2048 157.958 60.6242 160.325 62.6194C163.765 65.5503 166.717 67.5248 168.959 69.6232C173.486 73.8544 178.633 88.0891 179.08 95.8567C179.08 96.3451 179.94 89.1899 180.456 89.1143C181.089 89.0179 183.641 85.8944 183.29 81.6288C182.08 67.0501 178.357 66.4378 173.824 61.2847Z" fill="#263238"/>
<path d="M150.837 51.7559C151.544 51.6179 152.276 51.6799 152.949 51.9348C154.615 52.4456 156.1 53.4219 157.229 54.7487C157.551 55.1217 157.837 55.5249 158.082 55.9527C158.296 56.366 158.462 56.8022 158.577 57.253C158.823 57.9798 159.009 58.7253 159.135 59.4821C159.32 60.81 159.004 61.6149 158.935 61.5943C158.866 61.5736 158.969 60.7824 158.681 59.5647C158.49 58.8442 158.26 58.1345 157.993 57.4388C157.87 57.032 157.709 56.638 157.511 56.2623C157.278 55.868 157.011 55.495 156.713 55.1477C155.648 53.9136 154.3 52.9553 152.784 52.3544C151.615 51.9348 150.824 51.866 150.837 51.7559Z" fill="#455A64"/>
<path d="M173.376 97.9207C173.377 98.4484 173.176 98.9564 172.814 99.3403C172.452 99.7242 171.956 99.9548 171.429 99.9847C171.168 100.009 170.904 99.9812 170.653 99.9024C170.402 99.8236 170.17 99.6955 169.969 99.5257C169.769 99.3559 169.604 99.1478 169.485 98.9135C169.366 98.6792 169.295 98.4236 169.276 98.1615C169.262 97.6255 169.458 97.1053 169.822 96.7111C170.185 96.3169 170.688 96.0795 171.223 96.0493C171.488 96.0238 171.757 96.0527 172.011 96.1341C172.265 96.2155 172.5 96.3477 172.701 96.5228C172.903 96.6978 173.066 96.912 173.182 97.1523C173.298 97.3926 173.364 97.6541 173.376 97.9207Z" fill="#263238"/>
<path d="M150.714 98.0307C150.727 98.5667 150.531 99.0869 150.168 99.4811C149.804 99.8753 149.302 100.113 148.767 100.143C148.505 100.168 148.242 100.141 147.991 100.063C147.74 99.9853 147.508 99.8579 147.307 99.6886C147.106 99.5193 146.942 99.3117 146.822 99.0777C146.703 98.8438 146.632 98.5884 146.613 98.3266C146.598 97.7894 146.793 97.2675 147.156 96.8718C147.52 96.4761 148.024 96.2378 148.56 96.2075C148.822 96.1821 149.086 96.2094 149.337 96.2878C149.588 96.3663 149.821 96.4943 150.022 96.6643C150.223 96.8342 150.387 97.0427 150.506 97.2774C150.625 97.5122 150.696 97.7683 150.714 98.0307Z" fill="#263238"/>
<path d="M88.3532 115.251C89.6329 113.146 91.1052 111.165 93.4444 110.291C95.7836 109.417 98.4393 108.915 100.276 107.209C103.159 104.56 103.028 100.157 102.767 96.3176C102.505 92.4786 102.437 88.0616 105.381 85.4816C107.844 83.3282 111.759 83.1355 113.892 80.6656C115.316 79.0213 115.598 76.7509 116.093 74.6525C117.469 69.0315 120.545 59.2138 137.112 53.5653L122.457 109.252C123.551 109.562 126.166 112.052 126.31 113.738C126.441 115.313 125.76 116.909 125.746 118.492C125.746 120.425 127.851 121.581 129.186 123.012C130.878 124.835 131.401 127.463 131.14 129.892C130.597 133.211 129.71 136.465 128.491 139.6C114.896 138.224 95.0543 137.783 84.693 129.115C82.8148 127.546 85.5049 119.937 88.3532 115.251Z" fill="#263238"/>
<path d="M126.634 94.2949C126.379 94.1573 116.369 90.1669 115.729 100.728C115.089 111.289 125.801 109.72 125.835 109.424C125.87 109.128 126.634 94.2949 126.634 94.2949Z" fill="#FFBE9D"/>
<path d="M122.863 105.241C122.815 105.2 122.671 105.358 122.347 105.475C121.9 105.639 121.406 105.621 120.971 105.427C119.884 104.945 119.052 103.122 119.114 101.223C119.149 100.318 119.384 99.4325 119.802 98.6293C119.922 98.3067 120.118 98.0177 120.373 97.7866C120.628 97.5555 120.934 97.3891 121.267 97.3015C121.482 97.2586 121.705 97.2922 121.897 97.3965C122.089 97.5009 122.239 97.6693 122.32 97.8725C122.444 98.1752 122.361 98.3816 122.416 98.4023C122.471 98.4229 122.657 98.2372 122.595 97.7968C122.556 97.5311 122.424 97.2877 122.224 97.1088C121.948 96.8711 121.589 96.7524 121.226 96.7786C120.788 96.8368 120.373 97.0065 120.02 97.2716C119.667 97.5367 119.388 97.8882 119.21 98.2922C118.707 99.1795 118.429 100.176 118.398 101.196C118.336 103.321 119.3 105.372 120.799 105.901C121.077 106.002 121.373 106.039 121.666 106.008C121.96 105.977 122.242 105.879 122.492 105.723C122.829 105.489 122.898 105.262 122.863 105.241Z" fill="#EB996E"/>
<path d="M164.095 97.0538C164.151 96.2601 164.264 95.4715 164.432 94.6939C164.751 93.3928 165.337 92.1724 166.153 91.1106C166.97 90.0488 167.999 89.169 169.175 88.5274C170.35 87.8858 171.647 87.4964 172.982 87.3842C174.317 87.2721 175.66 87.4395 176.926 87.8759C177.799 88.17 178.62 88.597 179.362 89.1418C180.154 89.6895 180.852 90.3635 181.426 91.137C182.659 92.7512 183.341 94.7182 183.374 96.7491C183.406 98.78 182.786 100.768 181.605 102.42C181.059 103.21 180.39 103.907 179.623 104.484C178.9 105.054 178.093 105.507 177.229 105.826C175.633 106.441 173.901 106.616 172.214 106.335C170.742 106.092 169.349 105.505 168.148 104.622C166.388 103.342 165.111 101.508 164.522 99.4136C164.332 98.6394 164.194 97.8533 164.109 97.0607C164.106 97.1134 164.106 97.1662 164.109 97.2189C164.109 97.3496 164.109 97.501 164.109 97.6867C164.115 97.9383 164.14 98.189 164.185 98.4367C164.222 98.7783 164.287 99.1164 164.377 99.448C164.929 101.602 166.205 103.501 167.989 104.828C169.311 105.817 170.861 106.456 172.496 106.684C174.131 106.913 175.797 106.724 177.339 106.135C179.17 105.443 180.753 104.222 181.887 102.627C183.114 100.915 183.758 98.8538 183.724 96.7479C183.691 94.6421 182.982 92.6027 181.701 90.9306C181.105 90.1331 180.385 89.4363 179.568 88.8666C178.806 88.319 177.963 87.892 177.071 87.6007C175.511 87.0616 173.84 86.9259 172.214 87.2062C170.588 87.4865 169.059 88.1736 167.769 89.2037C166.024 90.5882 164.809 92.532 164.329 94.7077C164.25 95.0429 164.195 95.3831 164.164 95.7259C164.13 95.9768 164.114 96.2297 164.116 96.4827C164.116 96.6685 164.116 96.8199 164.116 96.9437C164.107 96.9801 164.1 97.0168 164.095 97.0538Z" fill="#455A64"/>
<path d="M137.511 97.4804C137.566 96.687 137.676 95.8985 137.841 95.1205C138.359 93.0101 139.57 91.1347 141.281 89.7954C142.455 88.8748 143.829 88.2432 145.292 87.9516C146.97 87.6199 148.706 87.741 150.321 88.3024C151.192 88.5995 152.013 89.0262 152.757 89.5684C153.548 90.118 154.245 90.7917 154.821 91.5636C156.052 93.1769 156.734 95.142 156.768 97.1712C156.801 99.2003 156.184 101.187 155.007 102.84C154.458 103.63 153.787 104.326 153.018 104.904C152.296 105.474 151.488 105.927 150.624 106.245C149.028 106.86 147.296 107.036 145.609 106.755C144.139 106.512 142.748 105.925 141.549 105.041C139.789 103.762 138.51 101.928 137.917 99.8333C137.727 99.0593 137.592 98.2731 137.511 97.4804C137.503 97.5328 137.503 97.5861 137.511 97.6386C137.511 97.7624 137.511 97.9207 137.511 98.1064C137.511 98.358 137.534 98.609 137.58 98.8564C137.617 99.1986 137.683 99.537 137.779 99.8677C138.326 102.024 139.602 103.925 141.391 105.248C142.608 106.162 144.022 106.779 145.519 107.05C147.259 107.35 149.048 107.179 150.7 106.555C152.534 105.868 154.118 104.646 155.248 103.046C156.474 101.334 157.118 99.2735 157.085 97.1676C157.052 95.0618 156.342 93.0224 155.062 91.3503C153.878 89.7907 152.257 88.6193 150.404 87.986C148.733 87.4149 146.939 87.3032 145.21 87.6626C143.368 88.0412 141.674 88.9429 140.332 90.2595C138.99 91.5762 138.056 93.252 137.642 95.0861C137.556 95.4199 137.501 95.7607 137.477 96.1044C137.436 96.3544 137.42 96.6079 137.428 96.8612V97.3221C137.444 97.3803 137.472 97.4343 137.511 97.4804Z" fill="#455A64"/>
<path d="M156.5 96.758C156.555 96.7924 156.83 96.3452 157.47 95.8292C158.29 95.1489 159.317 94.7681 160.383 94.7494C161.448 94.7306 162.488 95.075 163.332 95.726C164.02 96.2144 164.281 96.6548 164.329 96.6135C164.158 96.1789 163.867 95.8019 163.49 95.5264C162.628 94.7721 161.516 94.3661 160.371 94.3878C159.226 94.4094 158.13 94.8571 157.298 95.6434C156.933 95.9327 156.656 96.3189 156.5 96.758Z" fill="#455A64"/>
<path d="M124.212 93.6207C124.845 93.8215 125.498 93.9552 126.159 94.0197C127.377 94.2124 129.062 94.3912 130.92 94.5564L135.688 94.9829C136.341 95.0835 137.001 95.1341 137.662 95.1343C137.029 94.9318 136.377 94.7957 135.715 94.7284C134.504 94.5426 132.819 94.3637 130.954 94.1986L126.193 93.772C125.538 93.6672 124.875 93.6165 124.212 93.6207Z" fill="#455A64"/>
<path d="M179.451 103.005C180.31 102.013 181.007 100.891 181.515 99.6819C181.915 98.4298 182.117 97.1229 182.114 95.8085C182.267 96.1787 182.338 96.5779 182.32 96.9781C182.345 97.9418 182.186 98.9014 181.853 99.8058C181.52 100.71 181.015 101.542 180.366 102.255C179.864 102.792 179.479 103.039 179.451 103.005Z" fill="white"/>
<path d="M181.116 92.1346C181.171 92.052 181.564 92.2516 181.804 92.7194C182.045 93.1872 181.942 93.6138 181.846 93.6069C181.749 93.6 181.667 93.2492 181.481 92.8708C181.295 92.4924 181.054 92.2103 181.116 92.1346Z" fill="white"/>
<path d="M155.165 100.92C155.11 100.92 155.303 100.37 155.461 99.4824C155.867 97.1545 155.42 94.7583 154.202 92.7332C153.741 91.9626 153.369 91.536 153.411 91.4948C153.816 91.7905 154.158 92.1649 154.415 92.5955C155.106 93.5959 155.581 94.7292 155.809 95.9232C156.038 97.1172 156.015 98.3458 155.743 99.5306C155.646 100.028 155.449 100.501 155.165 100.92Z" fill="white"/>
<path d="M118.591 109.28C118.591 109.28 118.446 109.486 118.24 109.864C117.944 110.402 117.788 111.005 117.786 111.619C117.775 112.064 117.856 112.506 118.024 112.918C118.192 113.33 118.444 113.703 118.763 114.013C119.148 114.396 119.618 114.682 120.134 114.848C120.651 115.014 121.199 115.056 121.735 114.969C122.267 114.86 122.767 114.628 123.194 114.293C123.622 113.957 123.965 113.527 124.198 113.036C124.386 112.633 124.49 112.195 124.503 111.75C124.516 111.306 124.438 110.863 124.274 110.449C124.057 109.877 123.702 109.366 123.242 108.963C122.911 108.681 122.691 108.564 122.705 108.536C122.932 108.595 123.144 108.703 123.324 108.853C123.849 109.235 124.259 109.754 124.508 110.353C124.707 110.796 124.81 111.277 124.81 111.763C124.81 112.249 124.707 112.73 124.508 113.174C124.271 113.727 123.901 114.212 123.43 114.586C122.959 114.961 122.403 115.213 121.811 115.319C121.219 115.425 120.61 115.383 120.038 115.196C119.466 115.009 118.95 114.683 118.536 114.247C118.193 113.903 117.927 113.49 117.755 113.036C117.583 112.582 117.509 112.097 117.538 111.612C117.562 110.964 117.764 110.335 118.123 109.796C118.364 109.417 118.591 109.266 118.591 109.28Z" fill="#E0E0E0"/>
<path d="M176.706 117.398C177.288 117.631 177.93 117.669 178.536 117.508C179.184 117.327 179.769 116.967 180.222 116.469C180.781 115.866 181.157 115.117 181.309 114.309C181.467 113.5 181.365 112.663 181.02 111.915C180.737 111.301 180.315 110.762 179.789 110.339C179.28 109.967 178.725 109.664 178.137 109.438C178.312 109.422 178.489 109.446 178.653 109.507C179.119 109.636 179.557 109.848 179.947 110.133C180.531 110.562 181.003 111.126 181.323 111.777C181.716 112.581 181.836 113.492 181.667 114.371C181.498 115.249 181.078 116.06 180.456 116.703C179.951 117.229 179.303 117.595 178.591 117.756C178.115 117.868 177.616 117.842 177.153 117.68C176.83 117.549 176.692 117.412 176.706 117.398Z" fill="#E0E0E0"/>
<path d="M138.543 254.007L148.746 257.028C148.746 257.028 154.374 259.442 157.112 260.069C160.511 260.846 162.829 259.793 162.953 257.901C163.077 256.009 160.435 255.769 160.435 255.769C158.19 254.913 156.006 253.904 153.899 252.748C152.369 251.686 151.118 250.269 150.253 248.62L153.899 249.122C153.899 249.122 161.57 254.626 164.46 256.291C167.35 257.956 167.982 255.032 168.23 254.152C168.478 253.271 159.685 244.348 159.685 244.348C159.685 244.348 168.106 249.755 169.613 251.104C171.12 252.452 173.39 252.893 173.892 252.019C174.395 251.145 175.778 251.138 173.892 247.409C172.007 243.68 156.919 233.649 156.919 233.649L161.047 232.769L165.574 234.785C165.89 236.338 166.532 237.806 167.46 239.091C169.09 241.513 171.987 239.091 171.987 239.091L170.191 229.803L161.247 224.203C161.247 224.203 151.945 225.338 150.562 225.964C149.179 226.59 147.666 229.225 147.666 229.225L145.155 230.244C141.254 231.372 141.384 235.273 140.125 235.397C138.866 235.521 102.168 228.365 102.168 228.365L98.8453 227.499C93.3413 231.675 91.1466 238.575 90.1765 244.699C90.1765 244.699 89.1652 247.698 90.1765 249.349L138.543 254.007Z" fill="#FFBE9D"/>
<path d="M131.807 247.478C131.764 247.282 131.752 247.08 131.773 246.88C131.77 246.649 131.791 246.418 131.835 246.192C131.867 245.88 131.927 245.571 132.014 245.27C132.53 243.532 133.404 241.923 134.58 240.543C135.721 239.156 136.993 237.882 138.378 236.738C138.926 236.238 139.523 235.793 140.16 235.411C139.651 235.938 139.111 236.434 138.543 236.897C137.219 238.083 135.987 239.366 134.855 240.736C133.713 242.086 132.833 243.637 132.261 245.311C131.855 246.625 131.883 247.485 131.807 247.478Z" fill="#EB996E"/>
<path d="M147.7 229.225C147.7 229.225 147.397 229.384 146.929 229.762C146.277 230.313 145.714 230.96 145.258 231.682C144.929 232.169 144.647 232.688 144.418 233.23C144.207 233.867 144.073 234.528 144.019 235.197C143.925 235.976 143.646 236.721 143.207 237.371C142.709 238.001 142.3 238.695 141.99 239.435C141.519 240.686 141.519 242.065 141.99 243.316L142.038 243.446L141.921 243.522C140.326 244.552 139.171 246.139 138.68 247.973C138.511 248.697 138.408 249.433 138.371 250.175C138.315 249.983 138.292 249.783 138.302 249.583C138.295 249.026 138.355 248.469 138.481 247.925C138.92 245.998 140.089 244.316 141.742 243.233L141.673 243.44C141.175 242.109 141.175 240.642 141.673 239.312C141.991 238.55 142.417 237.838 142.939 237.199C143.358 236.583 143.622 235.875 143.71 235.135C143.793 233.824 144.272 232.569 145.086 231.537C145.571 230.806 146.181 230.166 146.888 229.645C147.079 229.502 147.287 229.384 147.507 229.294C147.568 229.263 147.633 229.24 147.7 229.225Z" fill="#EB996E"/>
<path d="M156.534 233.34C155.654 233.454 154.759 233.359 153.922 233.062C153.085 232.766 152.33 232.276 151.718 231.633C151.787 231.551 152.709 232.26 154.037 232.721C155.364 233.181 156.534 233.237 156.534 233.34Z" fill="#EB996E"/>
<path d="M158.887 243.501C157.558 243.129 156.266 242.636 155.027 242.029C153.74 241.535 152.497 240.932 151.312 240.227C152.637 240.609 153.928 241.102 155.172 241.699C156.459 242.193 157.702 242.796 158.887 243.501Z" fill="#EB996E"/>
<path d="M150.61 248.524C149.275 248.071 147.97 247.533 146.703 246.914C147.421 246.946 148.124 247.129 148.767 247.451C149.452 247.669 150.082 248.036 150.61 248.524Z" fill="#EB996E"/>
<path d="M157.621 244.155C157.029 244.473 156.508 244.908 156.09 245.435C155.672 245.961 155.367 246.568 155.192 247.217C155.144 247.217 155.103 246.976 155.192 246.591C155.29 246.086 155.507 245.612 155.825 245.209C156.144 244.805 156.554 244.484 157.022 244.272C157.36 244.128 157.607 244.114 157.621 244.155Z" fill="#EB996E"/>
<path d="M161.309 238.575C161.35 238.672 160.676 239.016 160.222 239.786C159.99 240.275 159.797 240.781 159.644 241.3C159.546 241.016 159.52 240.712 159.568 240.416C159.616 240.119 159.737 239.839 159.919 239.601C160.442 238.72 161.295 238.479 161.309 238.575Z" fill="#EB996E"/>
<path d="M160.27 228.469C160.236 228.469 160.098 228.31 159.995 227.98C159.871 227.53 159.871 227.055 159.995 226.604C160.115 226.16 160.352 225.755 160.683 225.435C160.93 225.194 161.137 225.111 161.157 225.146C160.829 225.626 160.564 226.146 160.366 226.694C160.264 227.279 160.232 227.875 160.27 228.469Z" fill="#EB996E"/>
<path d="M234.65 231.633C234.65 231.633 234.189 222.607 224.832 220.736C215.475 218.864 199.087 226.817 199.087 226.817L153.17 258.816L154.546 262.772L201.151 256.278L205.416 257.915L238.151 236.408L269.043 214.076L265.603 211.386C265.603 211.386 256.948 217.351 251.223 219.917C245.499 222.483 237.223 226.983 234.65 231.633Z" fill="#F5F5F5"/>
<path d="M152.461 264.08L191.319 239.938L232.4 233.34C232.4 233.34 234.464 236.326 237.952 235.596L271.733 212.204L272.373 213.615L206.861 259.642C205.899 259.993 204.86 260.075 203.854 259.879C202.849 259.683 201.917 259.215 201.158 258.527L152.461 264.08Z" fill="#455A64"/>
<path d="M232.4 233.34C232.307 233.441 232.2 233.529 232.083 233.601L231.134 234.289C230.308 234.881 229.118 235.741 227.694 236.828C224.777 238.995 220.814 242.084 216.534 245.586C212.255 249.088 208.409 252.342 205.657 254.716L202.375 257.537L201.481 258.293C201.384 258.39 201.276 258.473 201.158 258.541C201.158 258.541 201.24 258.431 201.433 258.245L202.279 257.433C203.022 256.745 204.102 255.741 205.465 254.537C208.175 252.115 211.98 248.84 216.28 245.325C220.58 241.809 224.536 238.754 227.515 236.635C228.987 235.569 230.205 234.743 231.058 234.186L232.042 233.553C232.155 233.471 232.274 233.4 232.4 233.34Z" fill="#263238"/>
<path d="M231.98 228.317C228.258 224.32 222.396 222.896 216.947 223.322C211.498 223.749 206.331 225.779 201.247 227.794L153.713 260.33L154.14 261.555L201.928 229.219C201.928 229.219 212.606 225.779 217.332 225.187C225.231 224.203 231.98 228.317 231.98 228.317Z" fill="#E0E0E0"/>
<path d="M239.438 232.597L262.293 217.179C262.293 217.179 243.566 226.921 239.438 232.597Z" fill="#E0E0E0"/>
<path d="M153.713 260.33C153.771 260.27 153.836 260.217 153.906 260.172L154.497 259.752L156.775 258.149L165.196 252.315L193.06 233.181L201.151 227.677C205.754 225.6 210.613 224.141 215.599 223.336C219.627 222.767 223.733 223.347 227.446 225.008C228.835 225.654 230.114 226.513 231.237 227.554C232.077 228.336 232.792 229.244 233.356 230.244C233.711 230.871 233.988 231.538 234.182 232.232C234.23 232.459 234.271 232.638 234.305 232.776C234.321 232.837 234.332 232.899 234.34 232.961C234.093 232.033 233.727 231.141 233.253 230.306C232.675 229.332 231.956 228.448 231.12 227.684C229.994 226.676 228.723 225.841 227.35 225.208C223.672 223.609 219.622 223.066 215.654 223.639C210.708 224.449 205.888 225.899 201.316 227.953H201.35L193.259 233.457L165.375 252.521L156.885 258.266L154.573 259.807L153.961 260.206C153.883 260.256 153.8 260.297 153.713 260.33Z" fill="#263238"/>
<path d="M195.323 235.734C195.432 235.644 195.552 235.57 195.681 235.514C195.922 235.383 196.28 235.184 196.741 234.95C197.67 234.468 199.025 233.794 200.731 233.023C205.155 230.949 209.85 229.511 214.677 228.751C219.529 228.018 224.486 228.472 229.125 230.072C230.519 230.575 231.858 231.218 233.122 231.991C233.576 232.253 233.9 232.507 234.127 232.679C234.247 232.753 234.36 232.838 234.464 232.934C234.464 232.934 233.962 232.645 233.053 232.129C231.773 231.41 230.431 230.809 229.042 230.333C224.425 228.819 219.517 228.406 214.711 229.129C209.919 229.887 205.249 231.275 200.821 233.257C199.107 234 197.738 234.633 196.789 235.08L195.702 235.583C195.581 235.645 195.454 235.696 195.323 235.734Z" fill="#263238"/>
<path d="M267.818 213.106C267.818 213.106 267.722 213.195 267.522 213.333L266.635 213.924L263.339 216.043C260.546 217.832 256.7 220.302 252.482 223.082C248.265 225.861 244.495 228.414 241.743 230.271L238.489 232.459L237.594 233.044C237.494 233.117 237.386 233.177 237.271 233.223C237.356 233.133 237.451 233.052 237.553 232.982L238.413 232.342C239.156 231.792 240.243 231.014 241.598 230.058C244.309 228.152 248.079 225.558 252.304 222.779C256.528 219.999 260.401 217.564 263.222 215.83C264.633 214.963 265.781 214.275 266.58 213.807L267.508 213.271C267.606 213.206 267.71 213.151 267.818 213.106Z" fill="#263238"/>
<path d="M247.027 237.846C246.56 238.969 245.967 240.036 245.258 241.025C244.378 242.07 241.502 243.529 241.275 245.517C241.048 247.506 241.516 252.17 238.406 255.72C236.401 257.929 233.865 259.587 231.037 260.536L218.77 259.339L199.176 251.627C198.738 251.516 198.361 251.238 198.127 250.851C197.893 250.465 197.82 250.002 197.924 249.563C198.045 249.085 198.307 248.654 198.674 248.326C199.042 247.997 199.5 247.786 199.988 247.719L200.456 247.643C200.456 247.643 199.328 246.721 200.944 245.105C202.32 243.729 205.258 244.506 206.772 245.008C208.285 245.51 217.16 249.219 218.75 249.79C220.16 250.292 221.247 250.739 221.247 250.739C221.247 250.739 209.888 243.075 209.73 242.07C209.544 240.866 209.668 240.316 210.831 239.477C212.207 238.479 214.464 239.545 216.651 240.467C218.282 241.155 228.678 246.288 228.678 246.288C228.678 246.288 229.145 245.834 228.678 244.912C228.21 243.99 224.756 239.545 224.212 238.72C223.669 237.894 223.524 237.426 224.068 236.732C224.825 235.748 226.82 235.28 228.657 236.959C229.82 238.032 233.955 240.811 233.955 240.811L253.04 226.886C253.04 226.886 255.413 226.824 254.588 230.134C253.762 233.443 247.027 237.846 247.027 237.846Z" fill="#FFBE9D"/>
<path d="M232.799 249.453C232.035 249.283 231.324 248.932 230.725 248.429C230.126 247.926 229.658 247.286 229.359 246.563C229.448 246.508 230.006 247.361 230.955 248.152C231.904 248.944 232.847 249.349 232.799 249.453Z" fill="#EB996E"/>
<path d="M234.367 241.148C234.367 241.107 234.622 241.032 235.055 241.087C235.596 241.165 236.105 241.391 236.526 241.739C236.947 242.087 237.264 242.545 237.443 243.061C237.574 243.46 237.553 243.749 237.505 243.749C237.216 243.107 236.805 242.527 236.294 242.043C235.716 241.623 235.062 241.319 234.367 241.148Z" fill="#EB996E"/>
<path d="M235.269 244.981C235.166 244.981 235.117 243.956 234.712 242.786C234.306 241.616 233.735 240.756 233.817 240.722C234.422 241.237 234.852 241.927 235.049 242.696C235.356 243.417 235.433 244.215 235.269 244.981Z" fill="#EB996E"/>
<path d="M246.559 236.855C246.559 236.89 246.318 236.752 246.07 236.422C245.756 235.983 245.56 235.472 245.5 234.936C245.44 234.4 245.518 233.858 245.726 233.36C245.892 232.989 246.077 232.803 246.112 232.831C245.867 233.49 245.779 234.197 245.857 234.896C245.935 235.595 246.175 236.266 246.559 236.855Z" fill="#EB996E"/>
<path d="M229.311 254.255C228.869 254.356 228.411 254.356 227.969 254.255C226.9 254.066 225.874 253.683 224.942 253.127C224.014 252.581 223.141 251.948 222.334 251.235C221.975 250.971 221.658 250.656 221.392 250.299C221.788 250.498 222.158 250.745 222.493 251.035C223.331 251.682 224.209 252.278 225.121 252.817C226.024 253.352 226.999 253.753 228.017 254.007C228.802 254.172 229.311 254.2 229.311 254.255Z" fill="#EB996E"/>
<path d="M232.503 252.287C232.599 252.287 232.606 252.975 232.028 253.546C231.45 254.117 230.749 254.09 230.762 253.993C230.776 253.897 231.306 253.76 231.774 253.305C232.242 252.851 232.4 252.273 232.503 252.287Z" fill="#EB996E"/>
<path d="M237.188 248.847C237.23 248.847 237.23 249.033 237.099 249.281C236.918 249.586 236.646 249.826 236.321 249.969C235.999 250.125 235.636 250.178 235.283 250.12C235.007 250.065 234.87 249.955 234.89 249.914C234.911 249.872 235.523 249.969 236.17 249.645C236.817 249.322 237.092 248.813 237.188 248.847Z" fill="#EB996E"/>
<path d="M220.663 256.656C220.628 256.745 216.067 254.847 210.48 252.404C204.894 249.962 200.394 247.905 200.463 247.822C200.532 247.74 205.066 249.638 210.652 252.081C216.239 254.523 220.704 256.567 220.663 256.656Z" fill="#EB996E"/>
<path d="M0.0623553 189.5L14.992 262.793H144.577C145.263 262.793 145.921 262.52 146.406 262.035C146.891 261.55 147.164 260.892 147.164 260.206C147.165 259.866 147.098 259.529 146.969 259.214C146.839 258.899 146.649 258.613 146.408 258.372C146.168 258.132 145.883 257.94 145.568 257.81C145.254 257.68 144.917 257.612 144.577 257.612H118.488L104.645 189.425C104.517 188.788 104.173 188.216 103.672 187.803C103.171 187.391 102.542 187.164 101.893 187.161L2.86939 186.102C2.44685 186.097 2.02868 186.187 1.64547 186.366C1.26227 186.544 0.923739 186.805 0.654647 187.131C0.385556 187.457 0.192716 187.839 0.0902355 188.249C-0.0122448 188.659 -0.0217705 189.086 0.0623553 189.5Z" fill="#E0E0E0"/>
<path d="M0.0622835 189.5L0.0210026 189.28C-0.00700086 189.052 -0.00700086 188.821 0.0210026 188.592C0.0698751 188.154 0.219509 187.732 0.458209 187.361C0.69691 186.99 1.01821 186.679 1.397 186.453C1.66006 186.291 1.94846 186.175 2.25012 186.109C2.58647 186.053 2.92772 186.032 3.26836 186.047H5.60068L11.4349 186.095L48.8828 186.446L74.9855 186.714L89.6124 186.858L97.2767 186.941L101.198 186.982C101.535 186.982 101.845 186.982 102.203 186.982C102.552 187.022 102.892 187.122 103.207 187.278C103.842 187.588 104.345 188.115 104.625 188.764C104.753 189.085 104.846 189.42 104.9 189.762L105.099 190.746C105.23 191.434 105.368 192.067 105.505 192.727C105.771 194.053 106.042 195.387 106.317 196.731C106.863 199.414 107.416 202.132 107.975 204.884C109.094 210.388 110.241 216.014 111.415 221.761C113.747 233.25 116.183 245.201 118.68 257.537L118.508 257.399H144.164C144.502 257.386 144.841 257.407 145.175 257.461C145.864 257.609 146.47 258.015 146.868 258.596C147.271 259.175 147.436 259.887 147.329 260.585C147.266 261.007 147.106 261.409 146.861 261.759C146.617 262.109 146.294 262.397 145.918 262.6C145.54 262.802 145.122 262.915 144.694 262.931H75.8317H14.9919H14.8818V262.821C10.3135 240.289 6.6258 221.967 4.03204 209.267C2.75236 202.923 1.76164 197.983 1.0874 194.626C0.757162 192.947 0.504896 191.674 0.330603 190.808C0.158603 189.941 0.0829227 189.5 0.0829227 189.5C0.0829227 189.5 0.186123 189.941 0.365003 190.794C0.543883 191.647 0.819082 192.94 1.16308 194.605C1.85108 197.963 2.8762 202.896 4.1834 209.239C6.78404 221.933 10.5336 240.247 15.1501 262.765L15.0125 262.655L75.8524 262.621H144.666C145.036 262.606 145.398 262.51 145.726 262.339C146.051 262.16 146.331 261.909 146.545 261.604C146.758 261.3 146.899 260.952 146.957 260.585C147.046 259.975 146.904 259.354 146.558 258.844C146.206 258.342 145.678 257.991 145.079 257.86C144.769 257.813 144.456 257.795 144.143 257.805H118.343V257.667C115.846 245.345 113.417 233.395 111.092 221.891C109.922 216.14 108.775 210.512 107.652 205.008L106.001 196.855C105.732 195.513 105.457 194.179 105.189 192.858C105.058 192.17 104.92 191.53 104.79 190.876L104.59 189.886C104.539 189.566 104.456 189.253 104.342 188.95C104.153 188.516 103.852 188.139 103.471 187.859C103.089 187.578 102.639 187.404 102.168 187.354C101.866 187.354 101.522 187.354 101.198 187.354L97.2767 187.306L89.6055 187.223L74.9855 187.051L48.8759 186.741L11.428 186.281L5.60068 186.205L3.26836 186.17C2.93253 186.15 2.59545 186.168 2.26388 186.225C1.96825 186.287 1.68468 186.396 1.42452 186.549C1.05337 186.766 0.736543 187.064 0.49811 187.422C0.259677 187.78 0.105919 188.187 0.0485232 188.613C0.0211975 188.908 0.0258111 189.206 0.0622835 189.5Z" fill="#263238"/>
<path d="M55.4944 227.32C57.8579 227.32 59.7738 225.404 59.7738 223.04C59.7738 220.677 57.8579 218.761 55.4944 218.761C53.131 218.761 51.2151 220.677 51.2151 223.04C51.2151 225.404 53.131 227.32 55.4944 227.32Z" fill="white"/>
<path d="M0.186035 190.113C0.186035 190.113 0.337394 190.113 0.633234 190.113H6.97659L25.5044 190.202L86.6332 190.629L95.474 190.704H97.6481C98.0187 190.69 98.3898 190.713 98.7558 190.773C99.3157 190.887 99.8331 191.154 100.251 191.543C100.668 191.933 100.97 192.431 101.123 192.982C101.288 193.67 101.405 194.358 101.549 195.046L104.707 210.966C106.709 221.114 108.519 230.23 110.032 237.929C111.546 245.627 112.784 251.806 113.596 256.106C114.009 258.245 114.325 259.91 114.545 261.052C114.649 261.61 114.731 262.043 114.786 262.346C114.841 262.649 114.855 262.786 114.855 262.786C114.855 262.786 114.814 262.642 114.752 262.353C114.69 262.064 114.594 261.623 114.477 261.066L113.458 256.161C112.591 251.861 111.339 245.662 109.784 238.004C108.23 230.347 106.413 221.197 104.384 211.055C103.372 205.985 102.32 200.66 101.205 195.142C101.061 194.454 100.937 193.766 100.785 193.078C100.604 192.424 100.187 191.861 99.6158 191.496C99.3324 191.314 99.0173 191.188 98.687 191.124C98.3415 191.068 97.991 191.047 97.6412 191.062H95.474L86.6332 190.993L25.5044 190.457L6.97659 190.25L1.94043 190.113H0.626355H0.186035Z" fill="#263238"/>
</svg>
